<svg width="48" height="48" viewBox="0 0 48 48" fill="none" xmlns="http://www.w3.org/2000/svg">
<g id="fi_6810321">
<path id="Vector" d="M41.7001 9.39823V28.3357C41.7003 28.4835 41.6713 28.6299 41.6148 28.7665C41.5584 28.9031 41.4755 29.0272 41.371 29.1317C41.2665 29.2362 41.1424 29.319 41.0058 29.3755C40.8692 29.432 40.7229 29.4609 40.5751 29.4607C35.4081 29.5385 30.2493 29.0226 25.2001 27.9232C21.4008 27.0855 17.5314 26.6059 13.6426 26.4907V5.29567C26.1053 5.79052 27.1352 8.31904 40.5751 8.27323C40.7229 8.27304 40.8692 8.302 41.0058 8.35847C41.1424 8.41493 41.2665 8.49779 41.371 8.6023C41.4755 8.7068 41.5584 8.8309 41.6148 8.96748C41.6713 9.10406 41.7003 9.25044 41.7001 9.39823ZM13.1101 43.1257H11.3926V3.75073C11.3881 3.4553 11.2676 3.17347 11.0571 2.96613C10.8466 2.75879 10.563 2.64257 10.2675 2.64258C9.97207 2.64259 9.68846 2.75882 9.47797 2.96618C9.26748 3.17353 9.14701 3.45537 9.14257 3.7508V43.1257H7.42507C7.12954 43.1301 6.84759 43.2505 6.64014 43.461C6.43269 43.6715 6.3164 43.9552 6.31641 44.2508C6.31641 44.5463 6.43271 44.83 6.64018 45.0405C6.84764 45.251 7.1296 45.3714 7.42512 45.3757H13.1101C13.4058 45.3717 13.688 45.2514 13.8957 45.0409C14.1034 44.8303 14.2198 44.5465 14.2198 44.2507C14.2198 43.955 14.1034 43.6712 13.8957 43.4606C13.688 43.2501 13.4058 43.1298 13.1101 43.1257Z" fill="#6B518B"/>
</g>
</svg>
