<svg width="49" height="48" viewBox="0 0 49 48" fill="none" xmlns="http://www.w3.org/2000/svg">
<path fill-rule="evenodd" clip-rule="evenodd" d="M13.9706 10.084H17.2597C17.7283 10.084 18.1117 10.4675 18.1117 10.936V12.4877C18.1117 13.4262 18.6472 14.2276 19.5142 14.5868C20.3813 14.9459 21.3266 14.7578 21.9903 14.0943L23.0874 12.997C23.4188 12.6657 23.961 12.6657 24.2923 12.997L26.6181 15.3228C26.9494 15.6542 26.9494 16.1963 26.6181 16.5277L25.5209 17.6248C24.8572 18.2885 24.6693 19.2337 25.0283 20.1008C25.3875 20.9679 26.1889 21.5033 27.1274 21.5033H28.6791C29.1477 21.5033 29.5311 21.8868 29.5311 22.3553V25.6445C29.5311 26.113 29.1477 26.4965 28.6791 26.4965H27.1274C26.1889 26.4965 25.3875 27.0319 25.0283 27.899C24.6692 28.7661 24.8572 29.7113 25.5209 30.375L26.6182 31.4722C26.9495 31.8035 26.9495 32.3457 26.6182 32.677L24.2924 35.0028C23.961 35.3341 23.4188 35.3341 23.0875 35.0028L21.9904 33.9055C21.3267 33.2419 20.3814 33.0539 19.5143 33.4131C18.6472 33.7722 18.1118 34.5736 18.1118 35.5121V37.0638C18.1118 37.5324 17.7285 37.9158 17.2598 37.9158H13.9707C13.5022 37.9158 13.1187 37.5324 13.1187 37.0638V35.5121C13.1187 34.5736 12.5832 33.7722 11.7161 33.4131C10.849 33.0539 9.90375 33.242 9.24009 33.9056L8.14294 35.0028C7.81153 35.3341 7.26937 35.3341 6.93806 35.0028L4.61231 32.677C4.281 32.3456 4.281 31.8035 4.61231 31.4722L5.70956 30.375C6.37322 29.7113 6.56119 28.7661 6.20203 27.899C5.84287 27.0319 5.0415 26.4965 4.10297 26.4965H2.55122C2.08256 26.4965 1.69922 26.113 1.69922 25.6445V22.3553C1.69922 21.8868 2.08266 21.5033 2.55122 21.5033H4.10287C5.04141 21.5033 5.84278 20.9678 6.20194 20.1008C6.56109 19.2337 6.37303 18.2885 5.70937 17.6248L4.61222 16.5277C4.28091 16.1962 4.28091 15.6541 4.61222 15.3228L6.93797 12.997C7.26937 12.6657 7.81153 12.6657 8.14284 12.997L9.24 14.0942C9.90366 14.7578 10.8489 14.9459 11.716 14.5868C12.5831 14.2276 13.1186 13.4262 13.1186 12.4877V10.936C13.1186 10.4675 13.502 10.084 13.9706 10.084ZM37.0938 28.1113C36.7762 28.1113 36.5166 28.3711 36.5166 28.6886V29.7399C36.5166 30.3758 36.1537 30.9188 35.5663 31.1621C34.9788 31.4055 34.3384 31.2781 33.8887 30.8285L33.1453 30.0851C32.9208 29.8606 32.5535 29.8606 32.3289 30.0851L30.7531 31.661C30.5286 31.8855 30.5286 32.2528 30.7531 32.4773L31.4964 33.2207C31.9461 33.6703 32.0735 34.3108 31.8301 34.8983C31.5867 35.4859 31.0438 35.8486 30.4079 35.8486H29.3566C29.0391 35.8486 28.7793 36.1084 28.7793 36.4258V38.6543C28.7793 38.9719 29.0391 39.2316 29.3566 39.2316H30.4079C31.0438 39.2316 31.5868 39.5944 31.8301 40.1818C32.0734 40.7693 31.9461 41.4098 31.4964 41.8594L30.753 42.6028C30.5285 42.8273 30.5285 43.1947 30.753 43.4192L32.3288 44.995C32.5534 45.2196 32.9207 45.2196 33.1452 44.995L33.8886 44.2516C34.3382 43.802 34.9787 43.6746 35.5662 43.9178C36.1537 44.1612 36.5165 44.7041 36.5165 45.34V46.3913C36.5165 46.7089 36.7762 46.9687 37.0937 46.9687H39.3222C39.6397 46.9687 39.8995 46.7089 39.8995 46.3913V45.34C39.8995 44.7041 40.2623 44.1611 40.8498 43.9178C41.4373 43.6746 42.0777 43.802 42.5273 44.2516L43.2708 44.995C43.4953 45.2196 43.8626 45.2196 44.0872 44.995L45.663 43.4192C45.8875 43.1947 45.8875 42.8273 45.663 42.6028L44.9196 41.8594C44.4699 41.4098 44.3425 40.7692 44.5858 40.1818C44.8292 39.5943 45.3721 39.2316 46.008 39.2316H47.0593C47.3767 39.2316 47.6365 38.9718 47.6365 38.6543V36.4258C47.6365 36.1083 47.3767 35.8486 47.0593 35.8486H46.008C45.3721 35.8486 44.8292 35.4858 44.5858 34.8983C44.3424 34.3108 44.4698 33.6704 44.9195 33.2207L45.6629 32.4773C45.8874 32.2528 45.8874 31.8855 45.6629 31.661L44.0871 30.0851C43.8625 29.8606 43.4952 29.8606 43.2707 30.0851L42.5272 30.8286C42.0776 31.2782 41.4371 31.4056 40.8497 31.1622C40.2622 30.9188 39.8994 30.3759 39.8994 29.74V28.6887C39.8994 28.3712 39.6397 28.1114 39.3221 28.1114H37.0938V28.1113ZM38.208 33.4617C40.4604 33.4617 42.2864 35.2877 42.2864 37.5401C42.2864 39.7926 40.4604 41.6185 38.208 41.6185C35.9556 41.6185 34.1296 39.7926 34.1296 37.5401C34.1296 35.2876 35.9557 33.4617 38.208 33.4617ZM37.0938 1.03125C36.7762 1.03125 36.5166 1.29103 36.5166 1.60847V2.65978C36.5166 3.29569 36.1537 3.83859 35.5663 4.08197C34.9788 4.32534 34.3384 4.19794 33.8887 3.74831L33.1453 3.00487C32.9208 2.78034 32.5535 2.78034 32.3289 3.00487L30.7531 4.58072C30.5286 4.80525 30.5286 5.17256 30.7531 5.39709L31.4964 6.14044C31.9461 6.59006 32.0735 7.23056 31.8301 7.81809C31.5867 8.40562 31.0438 8.76834 30.4079 8.76834H29.3566C29.0391 8.76834 28.7793 9.02812 28.7793 9.34566V11.5742C28.7793 11.8917 29.0391 12.1514 29.3566 12.1514H30.4079C31.0438 12.1514 31.5868 12.5142 31.8301 13.1017C32.0734 13.6892 31.9461 14.3296 31.4964 14.7792L30.753 15.5227C30.5285 15.7472 30.5285 16.1145 30.753 16.339L32.3288 17.9149C32.5534 18.1394 32.9207 18.1394 33.1452 17.9149L33.8886 17.1715C34.3382 16.7219 34.9787 16.5945 35.5662 16.8379C36.1537 17.0813 36.5165 17.6242 36.5165 18.2601V19.3114C36.5165 19.6289 36.7762 19.8887 37.0937 19.8887H39.3222C39.6397 19.8887 39.8995 19.6289 39.8995 19.3114V18.2601C39.8995 17.6242 40.2623 17.0813 40.8498 16.8379C41.4373 16.5946 42.0777 16.7219 42.5273 17.1715L43.2708 17.915C43.4953 18.1395 43.8626 18.1395 44.0872 17.915L45.663 16.3391C45.8875 16.1146 45.8875 15.7473 45.663 15.5228L44.9196 14.7793C44.4699 14.3297 44.3425 13.6892 44.5858 13.1017C44.8292 12.5142 45.3721 12.1515 46.008 12.1515H47.0593C47.3767 12.1515 47.6365 11.8917 47.6365 11.5743V9.34566C47.6365 9.02812 47.3767 8.76834 47.0593 8.76834H46.008C45.3721 8.76834 44.8292 8.40553 44.5858 7.81809C44.3424 7.23056 44.4698 6.59016 44.9195 6.14044L45.6629 5.39709C45.8874 5.17256 45.8874 4.80525 45.6629 4.58072L44.0871 3.00487C43.8625 2.78034 43.4952 2.78034 43.2707 3.00487L42.5272 3.74831C42.0776 4.19803 41.4371 4.32534 40.8497 4.08206C40.2622 3.83869 39.8994 3.29578 39.8994 2.65987V1.60847C39.8994 1.29094 39.6397 1.03125 39.3221 1.03125H37.0938ZM38.208 6.38156C40.4604 6.38156 42.2864 8.20753 42.2864 10.46C42.2864 12.7124 40.4604 14.5384 38.208 14.5384C35.9556 14.5384 34.1296 12.7124 34.1296 10.46C34.1296 8.20753 35.9557 6.38156 38.208 6.38156ZM12.0254 24.481L14.097 26.7881C14.5011 27.2371 15.2124 27.2058 15.5789 26.7324L19.2199 22.4847C19.5662 22.08 19.5188 21.4712 19.1141 21.125C18.7094 20.7787 18.1006 20.826 17.7544 21.2307L14.7985 24.6791L13.4607 23.1893C13.104 22.7929 12.4935 22.7607 12.0971 23.1174C11.7008 23.4743 11.6687 24.0848 12.0254 24.481ZM15.6152 17.4375C11.9909 17.4375 9.05269 20.3757 9.05269 24C9.05269 27.6243 11.9909 30.5625 15.6152 30.5625C19.2396 30.5625 22.1777 27.6243 22.1777 24C22.1777 20.3756 19.2395 17.4375 15.6152 17.4375Z" fill="#6B518B"/>
</svg>
