<svg width="49" height="48" viewBox="0 0 49 48" fill="none" xmlns="http://www.w3.org/2000/svg">
<g id="fi_10991755">
<path id="Vector" d="M36.9175 25.5224C39.4299 25.5224 41.4665 27.5341 41.4665 30.0157C41.4665 32.4972 39.4298 34.5089 36.9175 34.5089C34.4052 34.5089 32.3683 32.4972 32.3683 30.0157C32.3683 27.5341 34.4052 25.5224 36.9175 25.5224ZM18.5598 37.2849C17.9155 36.0651 16.8899 35.0742 15.6447 34.4737C14.5966 35.3731 13.2306 35.9152 11.7452 35.9152C10.2598 35.9152 8.89363 35.3731 7.84559 34.4736C5.68888 35.5134 4.19141 37.7241 4.19141 40.2675V43.5124C4.19141 43.7186 4.36016 43.8874 4.56641 43.8874H15.3713V43.5833C15.3713 41.0079 16.6286 38.7144 18.5598 37.2849ZM11.7452 34.5089C14.2576 34.5089 16.2943 32.4972 16.2943 30.0157C16.2943 27.5341 14.2576 25.5224 11.7452 25.5224C9.23281 25.5224 7.19619 27.5341 7.19619 30.0157C7.19619 32.4972 9.23281 34.5089 11.7452 34.5089ZM11.63 14.9993V11.9972C11.63 11.5695 11.9799 11.2195 12.4077 11.2195H13.8238C14.6804 11.2195 15.4119 10.7308 15.7397 9.93937C16.0676 9.14794 15.8959 8.28516 15.2902 7.67953L14.2887 6.67809C13.9863 6.37566 13.9863 5.88084 14.2887 5.57831L16.4115 3.45553C16.714 3.15309 17.2089 3.15309 17.5112 3.45553L18.5127 4.45697C19.1184 5.06269 19.9812 5.23434 20.7725 4.9065C21.5638 4.57866 22.0527 3.84731 22.0527 2.99062V1.57453C22.0527 1.14684 22.4025 0.796875 22.8302 0.796875H25.8322C26.2599 0.796875 26.6098 1.14684 26.6098 1.57453V2.99081C26.6098 3.84741 27.0986 4.57884 27.89 4.90669C28.6814 5.23453 29.5442 5.06287 30.1498 4.45716L31.1513 3.45572C31.4537 3.15328 31.9486 3.15328 32.2511 3.45572L34.3738 5.5785C34.6763 5.88094 34.6763 6.37584 34.3738 6.67828L33.3724 7.67972C32.7667 8.28544 32.595 9.14822 32.9229 9.93956C33.2507 10.7309 33.9821 11.2197 34.8387 11.2197H36.2549C36.6826 11.2197 37.0325 11.5696 37.0325 11.9974V14.9993C37.0325 15.427 36.6825 15.777 36.2548 15.777H34.8388C33.9822 15.777 33.2508 16.2657 32.923 17.0571C32.5951 17.8485 32.7668 18.7113 33.3725 19.317L34.3739 20.3184C34.6764 20.6209 34.6764 21.1158 34.3739 21.4182L32.2512 23.541C31.9487 23.8434 31.4538 23.8434 31.1514 23.541L30.1499 22.5396C29.5442 21.9338 28.6814 21.7622 27.8901 22.09C27.0987 22.4179 26.6099 23.1493 26.6099 24.0059V25.4222C26.6099 25.8499 26.2601 26.1998 25.8323 26.1998H22.8303C22.4026 26.1998 22.0528 25.8499 22.0528 25.4222V24.0059C22.0528 23.1493 21.564 22.4179 20.7726 22.09C19.9812 21.7622 19.1184 21.9338 18.5128 22.5396L17.5113 23.541C17.2089 23.8434 16.7141 23.8434 16.4116 23.541L14.2888 21.4182C13.9864 21.1158 13.9864 20.6209 14.2888 20.3184L15.2903 19.317C15.896 18.7113 16.0677 17.8485 15.7398 17.0571C15.4121 16.2657 14.6806 15.777 13.824 15.777H12.4078C11.9799 15.7769 11.63 15.4269 11.63 14.9993ZM18.0592 13.4982C18.0592 16.9623 20.8674 19.7705 24.3313 19.7705C27.7954 19.7705 30.6035 16.9623 30.6035 13.4982C30.6035 10.0342 27.7954 7.22606 24.3313 7.22606C20.8673 7.22606 18.0592 10.0342 18.0592 13.4982ZM40.8172 34.4736C39.7691 35.3731 38.403 35.9152 36.9176 35.9152C35.4321 35.9152 34.0661 35.3731 33.018 34.4737C31.7727 35.0742 30.7473 36.0651 30.103 37.2849C32.0342 38.7145 33.2915 41.008 33.2915 43.5833V43.8873H44.0964C44.3026 43.8873 44.4714 43.7185 44.4714 43.5123V40.2674C44.4714 37.724 42.9739 35.5134 40.8172 34.4736ZM24.3313 28.8382C21.8189 28.8382 19.7823 30.8498 19.7823 33.3314C19.7823 35.813 21.819 37.8247 24.3313 37.8247C26.8437 37.8247 28.8804 35.813 28.8804 33.3314C28.8804 30.8498 26.8438 28.8382 24.3313 28.8382ZM28.231 37.7893C27.1829 38.6888 25.8169 39.2309 24.3313 39.2309C22.8458 39.2309 21.4798 38.6888 20.4317 37.7893C18.275 38.8292 16.7774 41.0398 16.7774 43.5833V46.8281C16.7774 47.0344 16.9462 47.2031 17.1524 47.2031H31.5101C31.7163 47.2031 31.8851 47.0345 31.8851 46.8281V43.5833C31.8852 41.0398 30.3877 38.8293 28.231 37.7893Z" fill="#6B518B"/>
</g>
</svg>
