<svg width="1440" height="1030" viewBox="0 0 1440 1030" fill="none" xmlns="http://www.w3.org/2000/svg">
<g opacity="0.1" clip-path="url(#clip0_5904_6560)">
<g opacity="0.6">
<mask id="mask0_5904_6560" style="mask-type:luminance" maskUnits="userSpaceOnUse" x="0" y="0" width="2201" height="1031">
<path d="M0.261497 1006.58C833.662 783.533 2196.06 49.9106 2200 47.7932L2200.49 48.8375C2196.55 50.959 834.037 784.635 0.518486 1007.72L0.256989 1006.58H0.261497ZM0.266006 983.432C820.376 775.811 2196.01 7.83826 2199.99 5.62176L2200.5 6.66191C2196.51 8.87841 820.75 776.921 0.513977 984.571L0.266006 983.432ZM0.275023 959.764C261.349 898.507 583.901 772.513 900.768 630.111C1437.76 388.785 1958.42 100.345 2135.91 0L2136.42 1.03602C1958.91 101.394 1438.21 389.849 901.183 631.193C584.262 773.615 261.646 899.634 0.50496 960.908L0.275023 959.764ZM0.28404 935.313C248.973 882.785 558.134 763.407 865.331 624.304C1354.47 402.814 1838.63 131.302 2065.77 0L2066.29 1.03189C1839.13 132.338 1354.94 403.863 865.754 625.377C558.495 764.514 249.257 883.92 0.495943 936.46L0.288549 935.313H0.28404ZM0.297566 909.759C237.557 866.56 534.464 753.988 832.635 618.34C1288.25 411.057 1746.81 149.889 1999.97 0.00412757L2000.49 1.02777C1747.32 150.921 1288.73 412.105 833.054 619.413C534.816 755.099 237.827 867.699 0.477909 910.91L0.297566 909.759ZM0.3156 882.533C227.038 849.434 512.742 744.012 802.495 612.082C1231.81 416.604 1669.99 162.932 1938.48 0.00825515L1939.02 1.02364C1670.49 163.96 1232.26 417.661 802.918 613.155C513.085 745.126 227.295 850.573 0.464383 883.693L0.320109 882.533H0.3156ZM0.338143 853.306C217.367 831.244 492.774 733.454 774.65 605.573C1182.25 420.658 1603.38 172.817 1881.14 0.0123827L1881.68 1.02364C1603.9 173.841 1182.73 421.706 775.073 606.65C493.107 734.572 217.597 832.396 0.44184 854.47L0.338143 853.306ZM0.365195 821.709C208.531 811.696 474.523 722.099 749.077 598.663C1138.26 423.7 1544.63 180.738 1827.98 0.0123827L1828.53 1.01951C1545.16 181.762 1138.73 424.752 749.501 599.745C474.839 723.225 208.724 812.856 0.414789 822.877L0.365195 821.709ZM0.396755 787.232C200.537 790.443 457.927 709.741 725.664 591.23C1098.93 426.007 1492.3 187.301 1778.76 0.0165103L1779.33 1.01538C1492.84 188.321 1099.42 427.055 726.074 592.307C458.215 710.876 200.686 791.611 0.383229 788.4L0.396755 787.232ZM0.437332 749.336C193.436 767.048 443.026 696.033 704.451 583.008C1063.83 427.629 1445.56 192.857 1733.42 0.0206379L1733.99 1.01538C1446.1 193.876 1064.31 428.682 704.852 584.093C443.288 697.18 193.531 768.232 0.34716 750.5L0.437332 749.332V749.336ZM0.482417 707.512C187.309 741.065 429.92 680.621 685.533 573.708C1032.71 428.504 1403.86 197.587 1691.85 0.0247654L1692.44 1.01126C1404.39 198.607 1033.18 429.561 685.925 574.802C430.141 681.78 187.34 742.258 0.297566 708.667L0.477909 707.512H0.482417ZM0.532012 661.312C182.259 712.06 418.716 663.124 669.018 563.03C1005.41 428.508 1366.77 201.583 1653.92 0.028893L1654.52 1.01126C1367.32 202.598 1005.88 429.565 669.393 564.128C418.901 664.292 182.223 713.257 0.25248 662.439L0.527503 661.308L0.532012 661.312ZM0.581606 610.406C207.868 691.1 487.602 628.188 777.991 500.279C1068.45 372.336 1369.55 179.372 1619.49 0.0330206L1620.1 1.003C1370.11 180.379 1068.94 373.385 778.401 501.356C487.783 629.364 207.782 692.31 0.202886 611.504L0.572589 610.406H0.581606ZM0.6312 554.375C175.929 643.258 402.697 620.218 643.815 536.056C962.134 424.946 1305.44 207.324 1588.42 0.0330206L1589.03 0.998873C1305.99 208.335 962.585 426.015 644.145 537.163C402.778 621.406 175.74 644.455 0.1578 555.427L0.622183 554.37L0.6312 554.375ZM0.671778 493.592C174.933 602.952 398.229 594.144 635.461 519.109C946.183 420.819 1280.81 208.913 1560.54 0.0371482L1561.16 0.998873C1281.35 209.933 946.625 421.9 635.759 520.227C398.256 595.349 174.671 604.145 0.112714 494.599L0.66276 493.588L0.671778 493.592ZM0.707846 428.628C175.537 558.853 396.304 564.867 630.091 499.622C934.037 414.784 1260 209.495 1535.71 0.0371482L1536.34 0.994746C1260.54 210.519 934.461 415.874 630.357 500.745C396.277 566.076 175.208 560.029 0.0811543 429.586L0.698829 428.624L0.707846 428.628ZM0.739406 360.284C177.805 511.246 396.984 532.408 627.751 477.49C925.637 406.595 1242.85 208.938 1513.75 0.0454033L1514.39 0.994746C1243.38 209.966 926.043 407.697 627.977 478.629C396.903 533.617 177.412 512.41 0.0495943 361.196L0.72588 360.279L0.739406 360.284ZM0.761949 289.516C207.178 484.643 462.49 504.447 725.222 429.412C988.027 354.344 1258.28 184.379 1494.48 0.0454033L1495.12 0.994746C1258.83 185.402 988.46 355.434 725.484 430.539C462.422 505.669 206.768 485.82 0.0270514 290.391L0.748423 289.512L0.761949 289.516ZM0.775475 216.648C187.196 406.76 405.966 458.124 631.922 425.008C919.456 382.861 1218.66 203.939 1477.69 0.0454033L1478.33 0.990618C1219.18 204.979 919.812 383.992 632.057 426.164C405.785 459.321 186.709 407.883 0.0135257 217.49L0.761949 216.644L0.775475 216.648ZM0.784492 143.396C194.04 350.98 413.842 416.84 637.954 394.893C921.039 367.164 1211.05 199.341 1463.16 0.0454033L1463.81 0.990618C1211.57 200.394 921.377 368.304 638.044 396.053C413.617 418.033 193.517 352.082 0 144.222L0.770966 143.392L0.784492 143.396ZM0.789001 70.9654C201.944 294.053 423.418 373.603 645.989 362.735C925.074 349.102 1205.92 193.307 1450.63 0.0454033L1451.27 0.990618C1206.42 194.367 925.376 350.258 646.034 363.904C423.17 374.788 201.407 295.138 0 71.7744L0.779983 70.9613L0.789001 70.9654ZM0.25248 1029.17C846.543 793.369 2196.1 91.9913 2200.01 89.9646L2200.48 91.0172C2196.57 93.0438 846.922 794.471 0.522995 1030.3L0.247972 1029.17H0.25248Z" fill="white"/>
</mask>
<g mask="url(#mask0_5904_6560)">
<path d="M1440 0H0V1030H1440V0Z" fill="url(#paint0_linear_5904_6560)"/>
</g>
</g>
</g>
<defs>
<linearGradient id="paint0_linear_5904_6560" x1="49.1094" y1="1134.1" x2="1662.95" y2="372.732" gradientUnits="userSpaceOnUse">
<stop offset="0.3" stop-color="#001755" stop-opacity="0.55"/>
<stop offset="1" stop-color="#F99F1C"/>
</linearGradient>
<clipPath id="clip0_5904_6560">
<rect width="1440" height="1030" fill="white"/>
</clipPath>
</defs>
</svg>
