<svg width="137" height="42" viewBox="0 0 137 42" fill="none" xmlns="http://www.w3.org/2000/svg">
<path d="M69.137 22.9286C66.785 22.9286 64.868 24.7176 64.868 27.1816C64.868 29.6306 66.785 31.4346 69.137 31.4346C71.49 31.4346 73.407 29.6306 73.407 27.1816C73.406 24.7176 71.489 22.9286 69.137 22.9286ZM69.137 29.7606C67.848 29.7606 66.737 28.6976 66.737 27.1826C66.737 25.6516 67.849 24.6046 69.137 24.6046C70.426 24.6046 71.537 25.6516 71.537 27.1826C71.537 28.6966 70.426 29.7606 69.137 29.7606ZM59.823 22.9286C57.471 22.9286 55.554 24.7176 55.554 27.1816C55.554 29.6306 57.471 31.4346 59.823 31.4346C62.176 31.4346 64.093 29.6306 64.093 27.1816C64.093 24.7176 62.176 22.9286 59.823 22.9286ZM59.823 29.7606C58.534 29.7606 57.423 28.6976 57.423 27.1826C57.423 25.6516 58.535 24.6046 59.823 24.6046C61.112 24.6046 62.223 25.6516 62.223 27.1826C62.224 28.6966 61.112 29.7606 59.823 29.7606ZM48.745 24.2346V26.0386H53.063C52.934 27.0536 52.596 27.7946 52.08 28.3096C51.452 28.9376 50.469 29.6306 48.745 29.6306C46.087 29.6306 44.009 27.4876 44.009 24.8296C44.009 22.1716 46.087 20.0286 48.745 20.0286C50.179 20.0286 51.226 20.5926 51.999 21.3176L53.272 20.0446C52.192 19.0136 50.759 18.2246 48.745 18.2246C45.104 18.2246 42.043 21.1886 42.043 24.8296C42.043 28.4706 45.104 31.4346 48.745 31.4346C50.71 31.4346 52.193 30.7896 53.352 29.5816C54.544 28.3896 54.915 26.7136 54.915 25.3606C54.915 24.9426 54.883 24.5556 54.818 24.2336H48.745V24.2346ZM94.053 25.6356C93.699 24.6856 92.619 22.9286 90.412 22.9286C88.221 22.9286 86.4 24.6526 86.4 27.1816C86.4 29.5656 88.205 31.4346 90.621 31.4346C92.57 31.4346 93.698 30.2426 94.166 29.5496L92.716 28.5826C92.233 29.2916 91.572 29.7586 90.621 29.7586C89.671 29.7586 88.994 29.3236 88.559 28.4696L94.246 26.1176L94.053 25.6356ZM88.253 27.0536C88.205 25.4096 89.526 24.5726 90.477 24.5726C91.218 24.5726 91.846 24.9436 92.056 25.4746L88.253 27.0536ZM83.63 31.1776H85.498V18.6766H83.63V31.1776ZM80.568 23.8796H80.504C80.085 23.3796 79.279 22.9286 78.265 22.9286C76.138 22.9286 74.189 24.7976 74.189 27.1986C74.189 29.5826 76.138 31.4356 78.265 31.4356C79.28 31.4356 80.085 30.9846 80.504 30.4696H80.568V31.0816C80.568 32.7086 79.698 33.5786 78.297 33.5786C77.153 33.5786 76.444 32.7576 76.154 32.0646L74.527 32.7416C74.994 33.8686 76.234 35.2546 78.297 35.2546C80.488 35.2546 82.341 33.9656 82.341 30.8236V23.1876H80.569V23.8796H80.568ZM78.426 29.7606C77.137 29.7606 76.058 28.6806 76.058 27.1986C76.058 25.6996 77.137 24.6046 78.426 24.6046C79.698 24.6046 80.697 25.6996 80.697 27.1986C80.697 28.6806 79.698 29.7606 78.426 29.7606ZM102.807 18.6766H98.336V31.1776H100.201V26.4416H102.806C104.874 26.4416 106.908 24.9446 106.908 22.5596C106.908 20.1746 104.875 18.6766 102.807 18.6766ZM102.855 24.7016H100.201V20.4166H102.855C104.25 20.4166 105.042 21.5716 105.042 22.5596C105.042 23.5276 104.25 24.7016 102.855 24.7016ZM114.387 22.9066C113.036 22.9066 111.637 23.5016 111.058 24.8206L112.714 25.5116C113.068 24.8206 113.728 24.5946 114.419 24.5946C115.384 24.5946 116.365 25.1736 116.381 26.2026V26.3316C116.043 26.1386 115.319 25.8496 114.435 25.8496C112.65 25.8496 110.832 26.8306 110.832 28.6636C110.832 30.3366 112.296 31.4136 113.936 31.4136C115.19 31.4136 115.882 30.8506 116.316 30.1906H116.38V31.1556H118.182V26.3626C118.183 24.1446 116.525 22.9066 114.387 22.9066ZM114.161 29.7576C113.551 29.7576 112.698 29.4516 112.698 28.6956C112.698 27.7306 113.76 27.3606 114.677 27.3606C115.496 27.3606 115.883 27.5376 116.381 27.7786C116.236 28.9376 115.239 29.7576 114.161 29.7576ZM124.744 23.1796L122.605 28.5996H122.541L120.321 23.1796H118.311L121.64 30.7546L119.742 34.9686H121.688L126.819 23.1796H124.744ZM107.938 31.1776H109.803V18.6766H107.938V31.1776Z" fill="white"/>
<path d="M48.4176 11.4209C48.4176 12.2589 48.1696 12.9259 47.6726 13.4239C47.1086 14.0159 46.3726 14.3119 45.4686 14.3119C44.6026 14.3119 43.8656 14.0119 43.2606 13.4119C42.6546 12.8109 42.3516 12.0669 42.3516 11.1789C42.3516 10.2899 42.6546 9.54592 43.2606 8.94592C43.8656 8.34492 44.6026 8.04492 45.4686 8.04492C45.8986 8.04492 46.3096 8.12892 46.6996 8.29592C47.0906 8.46392 47.4036 8.68692 47.6376 8.96592L47.1106 9.49392C46.7136 9.01892 46.1666 8.78192 45.4676 8.78192C44.8356 8.78192 44.2896 9.00392 43.8286 9.44792C43.3676 9.89192 43.1376 10.4689 43.1376 11.1779C43.1376 11.8869 43.3676 12.4639 43.8286 12.9079C44.2896 13.3519 44.8356 13.5739 45.4676 13.5739C46.1376 13.5739 46.6966 13.3509 47.1436 12.9039C47.4336 12.6129 47.6016 12.2079 47.6466 11.6889H45.4676V10.9679H48.3746C48.4046 11.1249 48.4176 11.2759 48.4176 11.4209Z" fill="white"/>
<path d="M53.0277 8.91498H50.2957V10.817H52.7597V11.538H50.2957V13.44H53.0277V14.178H49.5247V8.17798H53.0277V8.91498Z" fill="white"/>
<path d="M56.2785 14.178H55.5075V8.91498H53.8315V8.17798H57.9545V8.91498H56.2785V14.178Z" fill="white"/>
<path d="M60.9375 14.178V8.17798H61.7085V14.178H60.9375Z" fill="white"/>
<path d="M65.1277 14.178H64.3567V8.91498H62.6807V8.17798H66.8037V8.91498H65.1277V14.178Z" fill="white"/>
<path d="M74.6084 13.403C74.0184 14.009 73.2854 14.312 72.4084 14.312C71.5314 14.312 70.7984 14.009 70.2094 13.403C69.6194 12.797 69.3254 12.055 69.3254 11.178C69.3254 10.301 69.6194 9.55897 70.2094 8.95297C70.7984 8.34697 71.5314 8.04297 72.4084 8.04297C73.2804 8.04297 74.0124 8.34797 74.6044 8.95697C75.1964 9.56597 75.4924 10.306 75.4924 11.178C75.4924 12.055 75.1974 12.797 74.6084 13.403ZM70.7784 12.9C71.2224 13.35 71.7654 13.574 72.4084 13.574C73.0514 13.574 73.5954 13.349 74.0384 12.9C74.4824 12.45 74.7054 11.876 74.7054 11.178C74.7054 10.48 74.4824 9.90597 74.0384 9.45597C73.5954 9.00597 73.0514 8.78197 72.4084 8.78197C71.7654 8.78197 71.2224 9.00697 70.7784 9.45597C70.3354 9.90597 70.1124 10.48 70.1124 11.178C70.1124 11.876 70.3354 12.45 70.7784 12.9Z" fill="white"/>
<path d="M76.5745 14.178V8.17798H77.5125L80.4285 12.845H80.4615L80.4285 11.689V8.17798H81.1995V14.178H80.3945L77.3435 9.28398H77.3105L77.3435 10.44V14.178H76.5745Z" fill="white"/>
<path d="M48.4176 11.4209C48.4176 12.2589 48.1696 12.9259 47.6726 13.4239C47.1086 14.0159 46.3726 14.3119 45.4686 14.3119C44.6026 14.3119 43.8656 14.0119 43.2606 13.4119C42.6546 12.8109 42.3516 12.0669 42.3516 11.1789C42.3516 10.2899 42.6546 9.54592 43.2606 8.94592C43.8656 8.34492 44.6026 8.04492 45.4686 8.04492C45.8986 8.04492 46.3096 8.12892 46.6996 8.29592C47.0906 8.46392 47.4036 8.68692 47.6376 8.96592L47.1106 9.49392C46.7136 9.01892 46.1666 8.78192 45.4676 8.78192C44.8356 8.78192 44.2896 9.00392 43.8286 9.44792C43.3676 9.89192 43.1376 10.4689 43.1376 11.1779C43.1376 11.8869 43.3676 12.4639 43.8286 12.9079C44.2896 13.3519 44.8356 13.5739 45.4676 13.5739C46.1376 13.5739 46.6966 13.3509 47.1436 12.9039C47.4336 12.6129 47.6016 12.2079 47.6466 11.6889H45.4676V10.9679H48.3746C48.4046 11.1249 48.4176 11.2759 48.4176 11.4209Z" stroke="white" stroke-width="0.2" stroke-miterlimit="10"/>
<path d="M53.0277 8.91498H50.2957V10.817H52.7597V11.538H50.2957V13.44H53.0277V14.178H49.5247V8.17798H53.0277V8.91498Z" stroke="white" stroke-width="0.2" stroke-miterlimit="10"/>
<path d="M56.2785 14.178H55.5075V8.91498H53.8315V8.17798H57.9545V8.91498H56.2785V14.178Z" stroke="white" stroke-width="0.2" stroke-miterlimit="10"/>
<path d="M60.9375 14.178V8.17798H61.7085V14.178H60.9375Z" stroke="white" stroke-width="0.2" stroke-miterlimit="10"/>
<path d="M65.1277 14.178H64.3567V8.91498H62.6807V8.17798H66.8037V8.91498H65.1277V14.178Z" stroke="white" stroke-width="0.2" stroke-miterlimit="10"/>
<path d="M74.6084 13.403C74.0184 14.009 73.2854 14.312 72.4084 14.312C71.5314 14.312 70.7984 14.009 70.2094 13.403C69.6194 12.797 69.3254 12.055 69.3254 11.178C69.3254 10.301 69.6194 9.55897 70.2094 8.95297C70.7984 8.34697 71.5314 8.04297 72.4084 8.04297C73.2804 8.04297 74.0124 8.34797 74.6044 8.95697C75.1964 9.56597 75.4924 10.306 75.4924 11.178C75.4924 12.055 75.1974 12.797 74.6084 13.403ZM70.7784 12.9C71.2224 13.35 71.7654 13.574 72.4084 13.574C73.0514 13.574 73.5954 13.349 74.0384 12.9C74.4824 12.45 74.7054 11.876 74.7054 11.178C74.7054 10.48 74.4824 9.90597 74.0384 9.45597C73.5954 9.00597 73.0514 8.78197 72.4084 8.78197C71.7654 8.78197 71.2224 9.00697 70.7784 9.45597C70.3354 9.90597 70.1124 10.48 70.1124 11.178C70.1124 11.876 70.3354 12.45 70.7784 12.9Z" stroke="white" stroke-width="0.2" stroke-miterlimit="10"/>
<path d="M76.5745 14.178V8.17798H77.5125L80.4285 12.845H80.4615L80.4285 11.689V8.17798H81.1995V14.178H80.3945L77.3435 9.28398H77.3105L77.3435 10.44V14.178H76.5745Z" stroke="white" stroke-width="0.2" stroke-miterlimit="10"/>
<path fill-rule="evenodd" clip-rule="evenodd" d="M11.156 9.14391C11.0379 9.41141 10.9727 9.73917 10.9727 10.1204V32.2364C10.9727 32.6185 11.038 32.9463 11.1562 33.2137L23.1902 21.1781L11.156 9.14391ZM11.8512 33.9329C12.2973 34.1238 12.8792 34.0633 13.5137 33.7034L27.6708 25.6587L23.8973 21.8852L11.8512 33.9329ZM28.5732 25.1469L33.0147 22.6234C34.4116 21.8284 34.4116 20.5294 33.0147 19.7354L28.5712 17.2106L24.6043 21.178L28.5732 25.1469ZM27.6694 16.6981L13.5137 8.65444C12.8791 8.29386 12.2972 8.23369 11.8512 8.42483L23.8972 20.4709L27.6694 16.6981Z" fill="white"/>
<rect x="0.75" y="0.927734" width="135.5" height="40.5" rx="5.25" stroke="white" stroke-width="0.5"/>
</svg>
