<svg width="137" height="42" viewBox="0 0 137 42" fill="none" xmlns="http://www.w3.org/2000/svg">
<path d="M82.5267 20.3781V22.6691H81.0906V24.1716H82.5267V29.2765C82.5267 31.0197 83.3152 31.717 85.2991 31.717C85.6478 31.717 85.9798 31.6755 86.2703 31.6257V30.1398C86.0213 30.1647 85.8636 30.1813 85.5896 30.1813C84.7015 30.1813 84.3113 29.7663 84.3113 28.82V24.1716H86.2703V22.6691H84.3113V20.3781H82.5267Z" fill="white"/>
<path d="M91.3242 31.8415C93.9638 31.8415 95.5825 30.0734 95.5825 27.1432C95.5825 24.2297 93.9555 22.4533 91.3242 22.4533C88.6845 22.4533 87.0576 24.2297 87.0576 27.1432C87.0576 30.0734 88.6762 31.8415 91.3242 31.8415ZM91.3242 30.256C89.7719 30.256 88.9003 29.1188 88.9003 27.1432C88.9003 25.1843 89.7719 24.0388 91.3242 24.0388C92.8681 24.0388 93.748 25.1843 93.748 27.1432C93.748 29.1105 92.8681 30.256 91.3242 30.256Z" fill="white"/>
<path d="M96.9674 31.6672H98.752V26.3298C98.752 25.0597 99.7066 24.2048 101.06 24.2048C101.375 24.2048 101.906 24.2629 102.056 24.3127V22.5529C101.865 22.5031 101.524 22.4782 101.259 22.4782C100.08 22.4782 99.0758 23.1257 98.8184 24.0138H98.6856V22.6276H96.9674V31.6672Z" fill="white"/>
<path d="M106.487 23.9723C107.807 23.9723 108.67 24.8937 108.712 26.3132H104.146C104.246 24.902 105.167 23.9723 106.487 23.9723ZM108.703 29.2267C108.371 29.9323 107.633 30.3224 106.553 30.3224C105.126 30.3224 104.204 29.318 104.146 27.7326V27.633H110.53V27.0104C110.53 24.1716 109.01 22.4533 106.495 22.4533C103.947 22.4533 102.328 24.2878 102.328 27.1764C102.328 30.0651 103.914 31.8415 106.504 31.8415C108.571 31.8415 110.015 30.8454 110.422 29.2267H108.703Z" fill="white"/>
<path d="M70.8231 28.329C70.9607 30.5487 72.8105 31.9683 75.5636 31.9683C78.506 31.9683 80.3472 30.4799 80.3472 28.1053C80.3472 26.2384 79.2975 25.2059 76.7509 24.6123L75.3829 24.2767C73.7655 23.8982 73.1116 23.3906 73.1116 22.5044C73.1116 21.386 74.1268 20.6547 75.6497 20.6547C77.095 20.6547 78.093 21.3688 78.2737 22.513H80.1493C80.0374 20.4224 78.1963 18.9512 75.6755 18.9512C72.9654 18.9512 71.1586 20.4224 71.1586 22.6335C71.1586 24.4574 72.1824 25.5415 74.4279 26.0663L76.0282 26.4534C77.6715 26.8406 78.3942 27.4084 78.3942 28.3548C78.3942 29.4561 77.2585 30.2562 75.7099 30.2562C74.0494 30.2562 72.8965 29.5077 72.7331 28.329H70.8231Z" fill="white"/>
<path d="M52.3357 22.4782C51.1072 22.4782 50.0447 23.0925 49.4969 24.1218H49.3641V22.6276H47.6458V34.6721H49.4305V30.2975H49.5716C50.0447 31.2521 51.0657 31.8166 52.3523 31.8166C54.6351 31.8166 56.0877 30.0153 56.0877 27.1432C56.0877 24.2712 54.6351 22.4782 52.3357 22.4782ZM51.8294 30.2145C50.3353 30.2145 49.3973 29.0358 49.3973 27.1515C49.3973 25.259 50.3353 24.0803 51.8377 24.0803C53.3484 24.0803 54.2532 25.2341 54.2532 27.1432C54.2532 29.0607 53.3484 30.2145 51.8294 30.2145Z" fill="white"/>
<path d="M62.3325 22.4782C61.104 22.4782 60.0415 23.0925 59.4937 24.1218H59.3609V22.6276H57.6426V34.6721H59.4273V30.2975H59.5684C60.0415 31.2521 61.0625 31.8166 62.3491 31.8166C64.6319 31.8166 66.0845 30.0153 66.0845 27.1432C66.0845 24.2712 64.6319 22.4782 62.3325 22.4782ZM61.8262 30.2145C60.3321 30.2145 59.3941 29.0358 59.3941 27.1515C59.3941 25.259 60.3321 24.0803 61.8345 24.0803C63.3452 24.0803 64.25 25.2341 64.25 27.1432C64.25 29.0607 63.3452 30.2145 61.8262 30.2145Z" fill="white"/>
<path d="M44.4438 31.6672H46.4914L42.009 19.2523H39.9356L35.4531 31.6672H37.4319L38.5762 28.372H43.3081L44.4438 31.6672ZM40.8733 21.5064H41.0196L42.8177 26.7546H39.0666L40.8733 21.5064Z" fill="white"/>
<path d="M36.6504 9.88843V15.8774H38.8127C40.5974 15.8774 41.6309 14.7776 41.6309 12.8643C41.6309 10.98 40.5891 9.88843 38.8127 9.88843H36.6504ZM37.5801 10.7351H38.709C39.95 10.7351 40.6846 11.5237 40.6846 12.8767C40.6846 14.2505 39.9624 15.0308 38.709 15.0308H37.5801V10.7351Z" fill="white"/>
<path d="M44.7959 15.9646C46.1158 15.9646 46.9251 15.0806 46.9251 13.6155C46.9251 12.1587 46.1116 11.2705 44.7959 11.2705C43.4761 11.2705 42.6626 12.1587 42.6626 13.6155C42.6626 15.0806 43.472 15.9646 44.7959 15.9646ZM44.7959 15.1719C44.0198 15.1719 43.584 14.6033 43.584 13.6155C43.584 12.636 44.0198 12.0632 44.7959 12.0632C45.5679 12.0632 46.0079 12.636 46.0079 13.6155C46.0079 14.5991 45.5679 15.1719 44.7959 15.1719Z" fill="white"/>
<path d="M53.8172 11.3577H52.9249L52.1197 14.8066H52.0492L51.1195 11.3577H50.2645L49.3348 14.8066H49.2684L48.4591 11.3577H47.5543L48.7994 15.8774H49.7167L50.6463 12.5488H50.7169L51.6507 15.8774H52.5763L53.8172 11.3577Z" fill="white"/>
<path d="M54.8449 15.8774H55.7372V13.2336C55.7372 12.5281 56.1564 12.0881 56.8163 12.0881C57.4762 12.0881 57.7916 12.4492 57.7916 13.1755V15.8774H58.684V12.9514C58.684 11.8765 58.1278 11.2705 57.1193 11.2705C56.4386 11.2705 55.9904 11.5735 55.7704 12.0757H55.704V11.3577H54.8449V15.8774Z" fill="white"/>
<path d="M60.0893 15.8774H60.9816V9.59375H60.0893V15.8774Z" fill="white"/>
<path d="M64.3376 15.9646C65.6575 15.9646 66.4668 15.0806 66.4668 13.6155C66.4668 12.1587 65.6533 11.2705 64.3376 11.2705C63.0178 11.2705 62.2043 12.1587 62.2043 13.6155C62.2043 15.0806 63.0137 15.9646 64.3376 15.9646ZM64.3376 15.1719C63.5615 15.1719 63.1257 14.6033 63.1257 13.6155C63.1257 12.636 63.5615 12.0632 64.3376 12.0632C65.1096 12.0632 65.5496 12.636 65.5496 13.6155C65.5496 14.5991 65.1096 15.1719 64.3376 15.1719Z" fill="white"/>
<path d="M69.1255 15.2009C68.6399 15.2009 68.2872 14.9644 68.2872 14.5576C68.2872 14.1592 68.5694 13.9475 69.1919 13.906L70.2959 13.8354V14.2131C70.2959 14.7734 69.7979 15.2009 69.1255 15.2009ZM68.8973 15.9521C69.4908 15.9521 69.9847 15.6948 70.2544 15.2424H70.325V15.8774H71.1841V12.7896C71.1841 11.835 70.545 11.2705 69.4119 11.2705C68.3868 11.2705 67.6563 11.7686 67.565 12.5447H68.4283C68.5279 12.2251 68.8724 12.0425 69.3704 12.0425C69.9805 12.0425 70.2959 12.3123 70.2959 12.7896V13.1797L69.0716 13.2502C67.9966 13.3167 67.3907 13.7856 67.3907 14.5991C67.3907 15.425 68.0257 15.9521 68.8973 15.9521Z" fill="white"/>
<path d="M74.2123 15.9521C74.8348 15.9521 75.3619 15.6575 75.6317 15.1636H75.7022V15.8774H76.5572V9.59375H75.6649V12.0757H75.5985C75.3536 11.5776 74.8307 11.283 74.2123 11.283C73.0709 11.283 72.3363 12.1877 72.3363 13.6155C72.3363 15.0474 73.0626 15.9521 74.2123 15.9521ZM74.4654 12.084C75.2125 12.084 75.6815 12.6775 75.6815 13.6196C75.6815 14.5659 75.2166 15.1511 74.4654 15.1511C73.7101 15.1511 73.2577 14.5742 73.2577 13.6155C73.2577 12.665 73.7142 12.084 74.4654 12.084Z" fill="white"/>
<path d="M82.3437 15.9646C83.6635 15.9646 84.4729 15.0806 84.4729 13.6155C84.4729 12.1587 83.6594 11.2705 82.3437 11.2705C81.0239 11.2705 80.2104 12.1587 80.2104 13.6155C80.2104 15.0806 81.0197 15.9646 82.3437 15.9646ZM82.3437 15.1719C81.5676 15.1719 81.1318 14.6033 81.1318 13.6155C81.1318 12.636 81.5676 12.0632 82.3437 12.0632C83.1157 12.0632 83.5556 12.636 83.5556 13.6155C83.5556 14.5991 83.1157 15.1719 82.3437 15.1719Z" fill="white"/>
<path d="M85.6541 15.8774H86.5464V13.2336C86.5464 12.5281 86.9656 12.0881 87.6255 12.0881C88.2854 12.0881 88.6008 12.4492 88.6008 13.1755V15.8774H89.4932V12.9514C89.4932 11.8765 88.937 11.2705 87.9285 11.2705C87.2478 11.2705 86.7996 11.5735 86.5796 12.0757H86.5132V11.3577H85.6541V15.8774Z" fill="white"/>
<path d="M93.6029 10.2329V11.3784H92.8849V12.1296H93.6029V14.6821C93.6029 15.5537 93.9972 15.9023 94.9891 15.9023C95.1634 15.9023 95.3294 15.8816 95.4747 15.8567V15.1138C95.3502 15.1262 95.2713 15.1345 95.1344 15.1345C94.6903 15.1345 94.4952 14.927 94.4952 14.4539V12.1296H95.4747V11.3784H94.4952V10.2329H93.6029Z" fill="white"/>
<path d="M96.6725 15.8774H97.5648V13.2378C97.5648 12.553 97.9716 12.0923 98.702 12.0923C99.3329 12.0923 99.6691 12.4575 99.6691 13.1797V15.8774H100.561V12.9597C100.561 11.8848 99.9679 11.2747 99.005 11.2747C98.3244 11.2747 97.8471 11.5776 97.6271 12.084H97.5565V9.59375H96.6725V15.8774Z" fill="white"/>
<path d="M103.78 12.03C104.44 12.03 104.872 12.4907 104.893 13.2004H102.61C102.66 12.4949 103.121 12.03 103.78 12.03ZM104.889 14.6572C104.723 15.01 104.353 15.2051 103.814 15.2051C103.1 15.2051 102.639 14.7029 102.61 13.9102V13.8604H105.802V13.5491C105.802 12.1296 105.042 11.2705 103.785 11.2705C102.51 11.2705 101.701 12.1877 101.701 13.6321C101.701 15.0764 102.494 15.9646 103.789 15.9646C104.822 15.9646 105.544 15.4666 105.748 14.6572H104.889Z" fill="white"/>
<path d="M25.77 21.4788C25.7916 19.7978 26.6944 18.2072 28.1265 17.3267C27.2231 16.0364 25.7098 15.2183 24.1354 15.1691C22.4561 14.9928 20.8282 16.1739 19.9725 16.1739C19.1002 16.1739 17.7827 15.1866 16.364 15.2157C14.5147 15.2755 12.7907 16.3269 11.891 17.9436C9.95705 21.292 11.3996 26.2131 13.2522 28.9197C14.1791 30.245 15.2624 31.7255 16.6799 31.673C18.0669 31.6155 18.585 30.7885 20.2593 30.7885C21.918 30.7885 22.4041 31.673 23.8503 31.6396C25.3387 31.6155 26.2764 30.3084 27.1708 28.9705C27.8368 28.0261 28.3492 26.9824 28.6892 25.878C26.9401 25.1382 25.772 23.3779 25.77 21.4788Z" fill="white"/>
<path d="M23.0383 13.3891C23.8498 12.4148 24.2496 11.1627 24.1528 9.89844C22.913 10.0287 21.7677 10.6212 20.9452 11.558C20.141 12.4734 19.7224 13.7035 19.8015 14.9194C21.0418 14.9322 22.2611 14.3557 23.0383 13.3891Z" fill="white"/>
<rect x="0.75" y="0.927734" width="135.5" height="40.5" rx="7.25" stroke="white" stroke-width="0.5"/>
</svg>
