<svg width="376" height="397" viewBox="0 0 376 397" fill="none" xmlns="http://www.w3.org/2000/svg">
<rect x="25.5044" y="0.369646" width="127.898" height="130.115" rx="7.02328" fill="#F5F3F7" stroke="url(#paint0_linear_5163_4059)" stroke-width="0.739292"/>
<rect y="151.555" width="150.816" height="152.294" rx="7.39292" fill="#F5F3F7"/>
<rect x="177.43" y="231.398" width="161.166" height="165.601" rx="7.39292" fill="#F5F3F7"/>
<rect x="175.953" width="199.609" height="208.48" rx="7.39292" fill="#F5F3F7"/>
<path d="M147.227 45.5569C147.195 42.675 150.327 40.8667 152.807 42.3353L162.535 48.0965C164.967 49.5372 164.948 53.0645 162.499 54.4782L152.897 60.0221C150.448 61.4358 147.384 59.689 147.352 56.8619L147.227 45.5569Z" fill="#F5F3F7"/>
<path d="M179.94 45.2422C179.856 42.4974 176.915 40.7992 174.496 42.0989L162.277 48.6643C159.726 50.035 159.67 53.6737 162.178 55.1217L174.821 62.4211C177.329 63.8691 180.452 62.0015 180.364 59.1069L179.94 45.2422Z" fill="#F5F3F7"/>
<path d="M147.227 264.211C147.195 261.329 150.327 259.521 152.807 260.99L162.535 266.751C164.967 268.191 164.948 271.719 162.499 273.133L152.897 278.676C150.448 280.09 147.384 278.343 147.352 275.516L147.227 264.211Z" fill="#F5F3F7"/>
<path d="M179.94 263.896C179.856 261.152 176.915 259.453 174.496 260.753L162.277 267.319C159.726 268.689 159.67 272.328 162.178 273.776L174.821 281.075C177.329 282.523 180.452 280.656 180.364 277.761L179.94 263.896Z" fill="#F5F3F7"/>
<path d="M267.17 237.203C264.288 237.235 262.48 234.103 263.949 231.623L269.71 221.895C271.15 219.462 274.678 219.482 276.091 221.93L281.635 231.533C283.049 233.981 281.302 237.046 278.475 237.077L267.17 237.203Z" fill="#F5F3F7"/>
<path d="M266.857 204.488C264.113 204.572 262.414 207.513 263.714 209.932L270.28 222.151C271.65 224.702 275.289 224.758 276.737 222.25L284.036 209.607C285.484 207.099 283.617 203.975 280.722 204.064L266.857 204.488Z" fill="#F5F3F7"/>
<path d="M83.0842 156.621C80.2023 156.653 78.394 153.521 79.8627 151.041L85.6238 141.313C87.0645 138.88 90.5919 138.9 92.0056 141.348L97.5494 150.951C98.9631 153.399 97.2164 156.464 94.3892 156.495L83.0842 156.621Z" fill="#F5F3F7"/>
<path d="M82.7715 123.906C80.0267 123.99 78.3285 126.931 79.6282 129.35L86.1936 141.569C87.5643 144.12 91.203 144.176 92.651 141.668L99.9504 129.025C101.398 126.517 99.5308 123.393 96.6362 123.482L82.7715 123.906Z" fill="#F5F3F7"/>
<path d="M79.3411 62.71C79.9643 62.7754 80.4988 62.3407 80.5676 61.733C80.6363 61.1253 80.2005 60.5753 79.5917 60.5065C78.4628 60.3779 77.3062 60.3136 76.1451 60.2825V52.4889H84.9856C84.9135 55.1104 84.5986 57.6321 84.0186 59.9853C83.8711 60.5808 84.2348 61.1807 84.8292 61.3271C85.4225 61.4768 86.0247 61.1109 86.171 60.5165C86.7943 57.9903 87.1303 55.2901 87.2035 52.4878H94.9383C94.7997 55.0328 94.2164 57.4846 93.1407 59.779C92.8812 60.3335 93.1185 60.9944 93.673 61.2539C94.2297 61.5134 94.8884 61.2739 95.1479 60.7216C96.5197 57.7974 97.215 54.6546 97.215 51.3799C97.215 39.1506 87.2656 29.2012 75.0362 29.2012C62.8068 29.2012 52.8574 39.1506 52.8574 51.3799C52.8574 56.725 54.7892 61.8871 58.2968 65.9126C62.5129 70.772 68.6143 73.5587 75.0362 73.5587C75.6494 73.5587 76.1451 73.0619 76.1451 72.4498V62.5004C77.2219 62.5314 78.2943 62.5913 79.3411 62.71ZM73.9273 60.2847C71.3079 60.3535 68.7907 60.6673 66.4131 61.2196C65.6324 58.5381 65.1844 55.5662 65.0968 52.4889H73.9273V60.2847ZM67.0962 63.3376C69.2608 62.8486 71.5475 62.5691 73.9273 62.5026V71.2022C71.2736 70.5701 68.7574 67.6802 67.0962 63.3376ZM59.419 63.7646C56.8529 60.5376 55.3548 56.603 55.1252 52.4889H62.8789C62.9676 55.7536 63.4411 58.9152 64.2684 61.7796C62.4963 62.3074 60.8739 62.9717 59.419 63.7646ZM59.4146 38.9898C60.8529 39.7727 62.4653 40.4436 64.2229 40.9759C63.4267 43.7582 62.9543 46.9065 62.8667 50.271H55.1319C55.367 46.0216 56.9228 42.1247 59.4146 38.9898ZM82.9585 39.44C80.8182 39.9146 78.5183 40.1919 76.1451 40.2595V31.5577C78.892 32.1975 81.3327 35.1784 82.9585 39.44ZM73.9273 31.5577V40.2595C71.5541 40.1919 69.2542 39.9146 67.1139 39.44C68.7396 35.1784 71.1804 32.1975 73.9273 31.5577ZM73.9273 42.4763V50.271H65.0846C65.1755 47.1338 65.6435 44.1674 66.4053 41.5514C68.7696 42.0937 71.3124 42.4053 73.9273 42.4763ZM76.1451 42.4763C78.76 42.4053 81.3028 42.0926 83.6671 41.5514C84.4289 44.1674 84.8958 47.1338 84.9878 50.271H76.1451V42.4763ZM94.9405 50.271H87.2046C87.117 46.9065 86.6446 43.7582 85.8483 40.9759C87.6071 40.4425 89.2184 39.7727 90.6567 38.9898C93.1496 42.1247 94.7054 46.0216 94.9405 50.271ZM89.1552 37.2842C87.9487 37.9019 86.6124 38.4342 85.1675 38.87C84.2182 36.3017 82.9706 34.1504 81.519 32.5202C84.4211 33.5216 87.0305 35.1562 89.1552 37.2842ZM68.5533 32.5213C67.1017 34.1515 65.8542 36.3028 64.9049 38.8711C63.46 38.4353 62.1237 37.9019 60.9172 37.2853C63.0419 35.1562 65.6512 33.5216 68.5533 32.5213ZM60.9371 65.4579C62.1437 64.8425 63.4855 64.3235 64.9349 63.8932C65.9019 66.497 67.1494 68.6483 68.5822 70.2574C65.7211 69.2771 63.1096 67.6359 60.9371 65.4579Z" fill="url(#paint1_linear_5163_4059)"/>
<path d="M118.285 63.5781H81.6901C79.8559 63.5781 78.3633 65.0708 78.3633 66.9049V89.0837C78.3633 90.9179 79.8559 92.4105 81.6901 92.4105H96.1063V95.7373H91.6705C91.0573 95.7373 90.5616 96.2341 90.5616 96.8463C90.5616 97.4584 91.0573 97.9552 91.6705 97.9552H108.305C108.918 97.9552 109.414 97.4584 109.414 96.8463C109.414 96.2341 108.918 95.7373 108.305 95.7373H103.869V92.4105H118.285C120.119 92.4105 121.612 90.9179 121.612 89.0837V66.9049C121.612 65.0708 120.119 63.5781 118.285 63.5781ZM101.651 95.7373H98.3242V92.4105H101.651V95.7373ZM118.285 90.1927H81.6901C81.078 90.1927 80.5812 89.6947 80.5812 89.0837V66.9049C80.5812 66.2939 81.078 65.796 81.6901 65.796H118.285C118.897 65.796 119.394 66.2939 119.394 66.9049V85.7569H83.908C83.2947 85.7569 82.799 86.2537 82.799 86.8658C82.799 87.478 83.2947 87.9748 83.908 87.9748H119.394V89.0837C119.394 89.6947 118.897 90.1927 118.285 90.1927Z" fill="url(#paint2_linear_5163_4059)"/>
<path d="M83.5827 76.5605L90.2363 69.9069C90.6699 69.4733 90.6699 68.7725 90.2363 68.3389C89.8027 67.9053 89.1019 67.9053 88.6683 68.3389L82.0146 74.9925C81.5811 75.4261 81.5811 76.1269 82.0146 76.5605C82.2309 76.7768 82.5148 76.8855 82.7987 76.8855C83.0826 76.8855 83.3664 76.7768 83.5827 76.5605Z" fill="url(#paint3_linear_5163_4059)"/>
<path d="M90.8857 74.3435C91.102 74.5598 91.3859 74.6685 91.6698 74.6685C91.9537 74.6685 92.2375 74.5598 92.4538 74.3435L94.6717 72.1257C95.1053 71.6921 95.1053 70.9912 94.6717 70.5576C94.2381 70.124 93.5372 70.124 93.1036 70.5576L90.8857 72.7755C90.4521 73.2091 90.4521 73.9099 90.8857 74.3435Z" fill="url(#paint4_linear_5163_4059)"/>
<path d="M87.5598 76.1025L83.124 80.5383C82.6904 80.9719 82.6904 81.6727 83.124 82.1063C83.3403 82.3226 83.6242 82.4313 83.908 82.4313C84.1919 82.4313 84.4758 82.3226 84.6921 82.1063L89.1278 77.6706C89.5614 77.237 89.5614 76.5361 89.1278 76.1025C88.6942 75.6689 87.9934 75.6689 87.5598 76.1025Z" fill="url(#paint5_linear_5163_4059)"/>
<g opacity="0.5">
<path d="M245.673 93.1596C245.119 92.8546 245.105 92.0368 245.659 91.7179L247.239 90.8169C247.808 90.4842 248.515 90.9278 248.487 91.5793L248.39 93.3259C248.348 93.9635 247.641 94.3239 247.115 93.9913C242.97 101.768 246.574 111.54 254.891 114.715C255.321 114.881 255.529 115.352 255.376 115.782C255.21 116.212 254.739 116.42 254.309 116.267C246.172 113.148 241.833 104.193 244.523 95.8487C244.828 94.92 245.216 94.0051 245.673 93.1596ZM295.104 84.7178C295.728 84.5514 296.296 85.1336 296.116 85.7435C305.542 88.599 310.38 99.1201 306.332 108.172C306.138 108.588 305.653 108.782 305.237 108.588C304.821 108.394 304.627 107.908 304.821 107.493C308.467 99.3419 304.1 89.902 295.672 87.3376C295.534 87.9475 294.785 88.1971 294.314 87.7673L293.066 86.6445C292.484 86.1594 292.748 85.3554 293.357 85.1891L295.104 84.7178ZM304.003 112.968C303.837 113.578 303.102 113.786 302.645 113.37C295.381 120.259 283.682 119.081 277.915 110.875C277.652 110.501 277.749 109.988 278.11 109.724C278.484 109.461 278.997 109.558 279.26 109.918C284.417 117.251 294.855 118.36 301.411 112.247C300.954 111.817 301.12 111.055 301.716 110.847L303.352 110.307C304.017 110.085 304.613 110.681 304.447 111.305L304.003 112.968ZM290.044 85.092C290.502 85.0504 290.904 85.397 290.932 85.8544C290.973 86.3119 290.627 86.7138 290.169 86.7416C282.698 87.3376 276.89 93.4229 276.571 100.964V100.978C276.557 105.483 274.713 109.558 271.733 112.524C268.864 115.38 264.927 117.196 260.574 117.321C260.533 117.93 259.868 118.305 259.327 117.986L257.844 117.126C257.275 116.794 257.303 115.962 257.885 115.671L259.452 114.881C260.02 114.59 260.671 115.02 260.658 115.657C264.525 115.519 268.018 113.911 270.569 111.36C273.244 108.699 274.894 105.025 274.921 100.978C274.921 100.964 274.921 100.95 274.921 100.922C275.226 92.5774 281.741 85.7574 290.044 85.092ZM250.58 89.6664C250.234 89.9714 249.707 89.9298 249.416 89.5694C249.111 89.2228 249.166 88.6961 249.513 88.405C257.178 81.8622 268.919 83.7336 274.187 92.3694C274.741 92.0783 275.406 92.4942 275.393 93.118L275.351 94.7814C275.337 95.4329 274.603 95.8071 274.076 95.4606L272.606 94.5041C272.066 94.1576 272.121 93.3675 272.676 93.0764C267.866 85.4108 257.4 83.8445 250.58 89.6664ZM261.115 91.3437H259.563V92.5496C259.59 92.9516 259.299 93.3259 258.883 93.4091C257.955 93.5754 256.804 94.0328 256.042 94.5735C255.709 94.823 255.238 94.8091 254.947 94.5041L254.059 93.617L252.964 94.7121L253.852 95.5992C254.129 95.8765 254.184 96.32 253.949 96.6527C253.657 97.0824 253.408 97.5537 253.2 98.0389C253.006 98.4963 252.867 98.9815 252.77 99.4944C252.715 99.9102 252.368 100.229 251.939 100.229H250.677V101.768H251.939C252.327 101.768 252.673 102.045 252.756 102.447C252.937 103.376 253.38 104.526 253.921 105.289C254.17 105.621 254.156 106.093 253.852 106.384L252.964 107.271L254.059 108.366L254.947 107.479C255.224 107.201 255.667 107.146 256 107.382C256.776 107.908 257.899 108.421 258.828 108.574C259.244 108.615 259.563 108.976 259.563 109.406V110.653H261.101V109.406C261.101 109.017 261.378 108.657 261.78 108.588C262.723 108.407 263.86 107.964 264.622 107.423C264.955 107.174 265.426 107.188 265.717 107.493L266.604 108.38L267.699 107.285L266.812 106.398C266.535 106.12 266.48 105.677 266.715 105.344C267.311 104.471 267.713 103.5 267.907 102.461C267.977 102.073 268.309 101.782 268.725 101.782H269.987V100.243H268.725C268.337 100.243 267.99 99.9657 267.907 99.5637C267.727 98.6349 267.284 97.4844 266.743 96.722C266.493 96.3893 266.507 95.918 266.812 95.6269L267.699 94.7398L266.604 93.6447L265.717 94.5319C265.44 94.8091 264.996 94.8645 264.664 94.6289C263.887 94.1021 262.765 93.5893 261.836 93.4368C261.42 93.3952 261.101 93.0348 261.101 92.6051V91.3437H261.115ZM263.236 98.0943C261.642 96.5002 259.036 96.5002 257.442 98.0943C255.834 99.7023 255.834 102.294 257.442 103.889C259.036 105.483 261.642 105.483 263.236 103.889C264.844 102.294 264.844 99.7023 263.236 98.0943ZM260.339 95.225C263.527 95.225 266.105 97.8032 266.105 100.991C266.105 104.18 263.527 106.758 260.339 106.758C257.151 106.758 254.572 104.18 254.572 100.991C254.586 97.8171 257.164 95.225 260.339 95.225ZM300.427 95.4745H281.644V107.091H300.427V95.4745ZM295.589 104.651C295.229 104.928 294.702 104.859 294.425 104.498C294.148 104.138 294.217 103.611 294.577 103.334L297.239 101.283L294.577 99.2449C294.217 98.9676 294.148 98.4409 294.425 98.0805C294.702 97.7201 295.229 97.6508 295.589 97.928L299.11 100.617C299.54 100.95 299.567 101.601 299.124 101.948L295.589 104.651ZM292.096 97.7894C292.318 97.3874 292.831 97.2626 293.233 97.4844C293.635 97.7062 293.759 98.2191 293.538 98.6211L289.975 104.79C289.74 105.192 289.241 105.33 288.839 105.095C288.437 104.873 288.312 104.36 288.534 103.958L292.096 97.7894ZM287.494 103.32C287.854 103.597 287.924 104.124 287.646 104.485C287.369 104.845 286.842 104.914 286.482 104.637L282.947 101.934C282.504 101.587 282.518 100.936 282.961 100.603L286.482 97.9141C286.842 97.6369 287.369 97.7062 287.646 98.0666C287.924 98.427 287.854 98.9538 287.494 99.231L284.819 101.283L287.494 103.32Z" fill="url(#paint6_linear_5163_4059)"/>
</g>
<g opacity="0.5">
<path d="M106.297 193.68L93.623 188.61C93.3204 188.489 92.9827 188.489 92.6801 188.61L80.0065 193.68C79.7716 193.774 79.5702 193.936 79.4284 194.146C79.2865 194.356 79.2107 194.603 79.2106 194.856V207.955C79.2172 210.362 79.8436 212.727 81.0294 214.822C82.2152 216.916 83.9204 218.67 85.9809 219.914L92.5002 223.825C92.697 223.943 92.9221 224.006 93.1516 224.006C93.381 224.006 93.6062 223.943 93.803 223.825L99.4884 220.414V234.608C99.4877 235.159 99.2685 235.687 98.8789 236.077C98.4892 236.467 97.961 236.686 97.4099 236.686H48.3378C47.7868 236.686 47.2585 236.467 46.8688 236.077C46.4792 235.687 46.26 235.159 46.2593 234.608V206.262H75.4086C75.7447 206.262 76.0671 206.129 76.3047 205.891C76.5424 205.653 76.6759 205.331 76.6759 204.995C76.6759 204.659 76.5424 204.336 76.3047 204.099C76.0671 203.861 75.7447 203.728 75.4086 203.728H46.2593V200.737C46.26 200.186 46.4792 199.657 46.8688 199.268C47.2585 198.878 47.7868 198.659 48.3378 198.658H75.4086C75.7447 198.658 76.0671 198.525 76.3047 198.287C76.5424 198.049 76.6759 197.727 76.6759 197.391C76.6759 197.055 76.5424 196.732 76.3047 196.495C76.0671 196.257 75.7447 196.123 75.4086 196.123H48.3378C47.1145 196.124 45.9415 196.61 45.0765 197.475C44.2115 198.34 43.7253 199.513 43.7246 200.737V234.6C43.7253 235.824 44.2115 236.997 45.0765 237.862C45.9415 238.727 47.1145 239.213 48.3378 239.214H97.4099C98.6332 239.213 99.8062 238.727 100.671 237.862C101.536 236.997 102.022 235.824 102.023 234.6V218.682C103.602 217.373 104.874 215.734 105.75 213.88C106.626 212.025 107.084 210.001 107.093 207.95V194.856C107.092 194.603 107.017 194.356 106.875 194.146C106.733 193.936 106.532 193.774 106.297 193.68ZM104.558 207.955C104.553 209.925 104.04 211.86 103.07 213.574C102.099 215.287 100.703 216.722 99.0169 217.739L93.1516 221.26L87.2863 217.739C85.5999 216.722 84.2042 215.287 83.2337 213.574C82.2631 211.86 81.7505 209.925 81.7454 207.955V195.713L93.1516 191.15L104.558 195.713V207.955Z" fill="url(#paint7_linear_5163_4059)"/>
<path d="M88.9818 204.316C88.8641 204.198 88.7244 204.105 88.5706 204.041C88.4168 203.977 88.2519 203.944 88.0854 203.944C87.9188 203.944 87.7539 203.976 87.6 204.04C87.4461 204.104 87.3063 204.197 87.1884 204.315C87.0706 204.432 86.9771 204.572 86.9133 204.726C86.8494 204.88 86.8165 205.044 86.8164 205.211C86.8163 205.378 86.849 205.542 86.9126 205.696C86.9762 205.85 87.0695 205.99 87.1872 206.108L90.5685 209.487C90.8062 209.724 91.1285 209.858 91.4645 209.858C91.8006 209.858 92.1229 209.724 92.3605 209.487L99.1206 202.727C99.3583 202.489 99.4916 202.166 99.4914 201.83C99.4912 201.493 99.3573 201.171 99.1194 200.933C98.8814 200.696 98.5588 200.562 98.2224 200.563C97.8861 200.563 97.5637 200.697 97.326 200.935L91.4632 206.8L88.9818 204.316Z" fill="url(#paint8_linear_5163_4059)"/>
<path d="M52.5994 229.074C52.2633 229.074 51.9409 229.208 51.7032 229.445C51.4656 229.683 51.332 230.005 51.332 230.342C51.332 230.678 51.4656 231 51.7032 231.238C51.9409 231.475 52.2633 231.609 52.5994 231.609H62.7383C63.0744 231.609 63.3967 231.475 63.6344 231.238C63.8721 231 64.0056 230.678 64.0056 230.342C64.0056 230.005 63.8721 229.683 63.6344 229.445C63.3967 229.208 63.0744 229.074 62.7383 229.074H52.5994Z" fill="url(#paint9_linear_5163_4059)"/>
</g>
<g opacity="0.5" clip-path="url(#clip0_5163_4059)">
<path d="M234.848 289.062V287.861C234.848 286.789 235.717 285.92 236.788 285.92H268.332C269.403 285.92 270.272 286.789 270.272 287.861V313.72C270.272 314.792 269.403 315.661 268.332 315.661H236.788C235.717 315.661 234.848 314.792 234.848 313.72V293.914" stroke="url(#paint10_linear_5163_4059)" stroke-width="1.47858" stroke-miterlimit="10" stroke-linecap="round" stroke-linejoin="round"/>
<path d="M252.838 285.92C252.838 285.92 250.571 279.752 244.333 279.752C238.095 279.752 240.051 285.92 245.126 285.92C250.201 285.92 252.838 285.92 252.838 285.92Z" stroke="url(#paint11_linear_5163_4059)" stroke-width="1.47858" stroke-miterlimit="10" stroke-linecap="round" stroke-linejoin="round"/>
<path d="M252.838 285.92C252.838 285.92 255.105 279.752 261.343 279.752C267.581 279.752 265.625 285.92 260.55 285.92C255.475 285.92 252.838 285.92 252.838 285.92Z" stroke="url(#paint12_linear_5163_4059)" stroke-width="1.47858" stroke-miterlimit="10" stroke-linecap="round" stroke-linejoin="round"/>
<path d="M249.787 315.43V285.92H255.886V315.43" stroke="url(#paint13_linear_5163_4059)" stroke-width="1.47858" stroke-miterlimit="10" stroke-linecap="round" stroke-linejoin="round"/>
<path d="M249.603 303.859H234.848V297.76H249.572" stroke="url(#paint14_linear_5163_4059)" stroke-width="1.47858" stroke-miterlimit="10" stroke-linecap="round" stroke-linejoin="round"/>
<path d="M256.043 297.76H270.274V303.859H256.043" stroke="url(#paint15_linear_5163_4059)" stroke-width="1.47858" stroke-miterlimit="10" stroke-linecap="round" stroke-linejoin="round"/>
<path d="M226.954 324.456L224.466 323.156C222.435 322.094 219.927 322.884 218.864 324.92C217.802 326.956 218.587 329.467 220.618 330.529L235.176 338.14" stroke="url(#paint16_linear_5163_4059)" stroke-width="1.47858" stroke-miterlimit="10" stroke-linecap="round" stroke-linejoin="round"/>
<path d="M270.292 345.694L274.169 345.122H282.657V328.721L274.491 328.72C270.132 321.065 261.865 324.714 259.481 326.126C258.649 326.619 257.634 326.689 256.754 326.291L248.681 322.641C246.785 321.784 244.553 322.63 243.699 324.527C242.847 326.422 243.692 328.65 245.587 329.501L254.727 333.611" stroke="url(#paint17_linear_5163_4059)" stroke-width="1.47858" stroke-miterlimit="10" stroke-linecap="round" stroke-linejoin="round"/>
<path d="M277.53 338.561C276.665 332.947 271.806 329.696 265.412 330.191C258.346 330.738 248.108 337.71 248.108 337.71L231.796 324.884C229.993 323.466 227.382 323.78 225.965 325.585C224.549 327.39 224.862 330.003 226.665 331.42L247.445 347.758C248.181 348.337 249.085 348.646 250.01 348.646C250.211 348.646 250.414 348.631 250.616 348.601L265.479 346.406" stroke="url(#paint18_linear_5163_4059)" stroke-width="1.47858" stroke-miterlimit="10" stroke-linecap="round" stroke-linejoin="round"/>
<path d="M286.44 347.859H283.501C283.034 347.859 282.656 347.481 282.656 347.014V328.721H286.44C286.906 328.721 287.284 329.099 287.284 329.565V347.014C287.284 347.481 286.906 347.859 286.44 347.859Z" stroke="url(#paint19_linear_5163_4059)" stroke-width="1.47858" stroke-miterlimit="10" stroke-linecap="round" stroke-linejoin="round"/>
</g>
<defs>
<linearGradient id="paint0_linear_5163_4059" x1="90.0347" y1="-64.8483" x2="-41.9675" y2="62.5672" gradientUnits="userSpaceOnUse">
<stop stop-color="#46266E"/>
<stop offset="1" stop-opacity="0.982162"/>
</linearGradient>
<linearGradient id="paint1_linear_5163_4059" x1="75.2367" y1="7.21871" x2="30.4697" y2="51.1752" gradientUnits="userSpaceOnUse">
<stop stop-color="#46266E"/>
<stop offset="1" stop-opacity="0.982162"/>
</linearGradient>
<linearGradient id="paint2_linear_5163_4059" x1="100.183" y1="46.5417" x2="66.2434" y2="88.467" gradientUnits="userSpaceOnUse">
<stop stop-color="#46266E"/>
<stop offset="1" stop-opacity="0.982162"/>
</linearGradient>
<linearGradient id="paint3_linear_5163_4059" x1="86.1656" y1="63.617" x2="77.2119" y2="72.4089" gradientUnits="userSpaceOnUse">
<stop stop-color="#46266E"/>
<stop offset="1" stop-opacity="0.982162"/>
</linearGradient>
<linearGradient id="paint4_linear_5163_4059" x1="92.7988" y1="68.034" x2="88.3218" y2="72.4302" gradientUnits="userSpaceOnUse">
<stop stop-color="#46266E"/>
<stop offset="1" stop-opacity="0.982162"/>
</linearGradient>
<linearGradient id="paint5_linear_5163_4059" x1="86.156" y1="72.4798" x2="79.4407" y2="79.0739" gradientUnits="userSpaceOnUse">
<stop stop-color="#46266E"/>
<stop offset="1" stop-opacity="0.982162"/>
</linearGradient>
<linearGradient id="paint6_linear_5163_4059" x1="276.038" y1="67.8271" x2="247.823" y2="120.608" gradientUnits="userSpaceOnUse">
<stop stop-color="#46266E"/>
<stop offset="1" stop-opacity="0.982162"/>
</linearGradient>
<linearGradient id="paint7_linear_5163_4059" x1="75.695" y1="163.397" x2="25.58" y2="224.907" gradientUnits="userSpaceOnUse">
<stop stop-color="#46266E"/>
<stop offset="1" stop-opacity="0.982162"/>
</linearGradient>
<linearGradient id="paint8_linear_5163_4059" x1="93.2112" y1="195.956" x2="84.2145" y2="208.002" gradientUnits="userSpaceOnUse">
<stop stop-color="#46266E"/>
<stop offset="1" stop-opacity="0.982162"/>
</linearGradient>
<linearGradient id="paint9_linear_5163_4059" x1="57.7261" y1="227.818" x2="56.7253" y2="232.731" gradientUnits="userSpaceOnUse">
<stop stop-color="#46266E"/>
<stop offset="1" stop-opacity="0.982162"/>
</linearGradient>
<linearGradient id="paint10_linear_5163_4059" x1="252.72" y1="271.181" x2="223.064" y2="305.865" gradientUnits="userSpaceOnUse">
<stop stop-color="#46266E"/>
<stop offset="1" stop-opacity="0.982162"/>
</linearGradient>
<linearGradient id="paint11_linear_5163_4059" x1="246.688" y1="276.695" x2="241.671" y2="286.608" gradientUnits="userSpaceOnUse">
<stop stop-color="#46266E"/>
<stop offset="1" stop-opacity="0.982162"/>
</linearGradient>
<linearGradient id="paint12_linear_5163_4059" x1="259.1" y1="276.695" x2="254.083" y2="286.608" gradientUnits="userSpaceOnUse">
<stop stop-color="#46266E"/>
<stop offset="1" stop-opacity="0.982162"/>
</linearGradient>
<linearGradient id="paint13_linear_5163_4059" x1="252.864" y1="271.295" x2="241.252" y2="273.652" gradientUnits="userSpaceOnUse">
<stop stop-color="#46266E"/>
<stop offset="1" stop-opacity="0.982162"/>
</linearGradient>
<linearGradient id="paint14_linear_5163_4059" x1="242.292" y1="294.737" x2="237.889" y2="305.197" gradientUnits="userSpaceOnUse">
<stop stop-color="#46266E"/>
<stop offset="1" stop-opacity="0.982162"/>
</linearGradient>
<linearGradient id="paint15_linear_5163_4059" x1="263.223" y1="294.737" x2="258.709" y2="305.08" gradientUnits="userSpaceOnUse">
<stop stop-color="#46266E"/>
<stop offset="1" stop-opacity="0.982162"/>
</linearGradient>
<linearGradient id="paint16_linear_5163_4059" x1="226.859" y1="315.024" x2="211.29" y2="331.626" gradientUnits="userSpaceOnUse">
<stop stop-color="#46266E"/>
<stop offset="1" stop-opacity="0.982162"/>
</linearGradient>
<linearGradient id="paint17_linear_5163_4059" x1="263.19" y1="310.716" x2="242.259" y2="345.242" gradientUnits="userSpaceOnUse">
<stop stop-color="#46266E"/>
<stop offset="1" stop-opacity="0.982162"/>
</linearGradient>
<linearGradient id="paint18_linear_5163_4059" x1="251.541" y1="311.78" x2="232.163" y2="352.268" gradientUnits="userSpaceOnUse">
<stop stop-color="#46266E"/>
<stop offset="1" stop-opacity="0.982162"/>
</linearGradient>
<linearGradient id="paint19_linear_5163_4059" x1="284.991" y1="319.236" x2="276.307" y2="321.299" gradientUnits="userSpaceOnUse">
<stop stop-color="#46266E"/>
<stop offset="1" stop-opacity="0.982162"/>
</linearGradient>
<clipPath id="clip0_5163_4059">
<rect width="70.9721" height="70.9721" fill="white" transform="translate(217.352 278.713)"/>
</clipPath>
</defs>
</svg>
