<svg width="33" height="32" viewBox="0 0 33 32" fill="none" xmlns="http://www.w3.org/2000/svg">
<path d="M4.33736 0C3.23631 0 2.33421 0.903083 2.33421 2.00413V10.3454C1.63139 10.5806 1.12482 11.0342 0.814238 11.5445C0.450188 12.1427 0.330078 12.7999 0.330078 13.3491V17.6107C0.330078 18.4973 0.732287 19.587 1.10962 20.6457C1.29833 21.1751 1.4845 21.6884 1.62019 22.1168C1.7559 22.5452 1.83048 22.9081 1.83048 23.0333V24.9259C1.52511 25.2014 1.33165 25.5992 1.33165 26.039V30.5451C1.33165 31.3687 2.00943 32.0504 2.83304 32.0504H9.84602C10.6696 32.0504 11.3464 31.3687 11.3464 30.5451V26.039C11.3464 25.4451 10.9938 24.9279 10.4886 24.6853C10.574 24.3429 10.7486 23.8725 10.9434 23.3257C11.1736 22.6799 11.4153 21.9126 11.4873 21.034H20.8056L23.1492 25.724C22.6836 25.98 22.3657 26.4759 22.3657 27.0406V30.5451C22.3657 31.3687 23.0425 32.0504 23.8661 32.0504H30.8752C31.6988 32.0504 32.3805 31.3687 32.3805 30.5451V27.0406C32.3805 26.4176 31.9906 25.8784 31.4444 25.6526C31.5241 25.3802 31.6687 25.0564 31.8366 24.6784C32.0926 24.1025 32.3805 23.3969 32.3805 22.5345C32.3805 15.691 32.3805 8.84757 32.3805 2.00413C32.3805 0.903083 31.4774 0 30.3763 0L4.33736 0ZM4.33736 1.00157H30.3763C30.9398 1.00157 31.3779 1.4406 31.3779 2.00413V16.6121C31.2203 16.5553 31.051 16.5201 30.8752 16.524C30.6136 16.5297 30.5409 16.561 30.3763 16.615V3.50453C30.3763 2.68091 29.6995 2.00413 28.8759 2.00413H5.83776C5.01415 2.00413 4.33736 2.68091 4.33736 3.50453V12.2028C4.30669 12.1895 4.27627 12.1752 4.24541 12.1627C3.95225 12.0436 3.63527 11.9968 3.33578 12.0551V2.00413C3.33578 1.4406 3.77381 1.00165 4.33736 1.00157ZM5.33893 13.1134V3.50453C5.33893 3.21845 5.55167 3.00572 5.83776 3.0057H28.8759C29.162 3.0057 29.3748 3.21845 29.3748 3.50453V16.1152C29.2192 16.055 29.0642 16.0252 28.8759 16.0252C28.4636 16.0252 28.2241 16.1709 28.1336 16.2179C28.0137 16.0084 27.6137 15.5384 26.8718 15.5225C26.6018 15.5376 26.5553 15.5539 26.3691 15.6095V13.5232H27.8665C28.1435 13.5222 28.367 13.2964 28.3654 13.0195C28.3643 12.7444 28.1416 12.5217 27.8665 12.5207H26.3691C26.3691 11.697 25.6923 11.0163 24.8687 11.0163C24.045 11.0163 23.3634 11.697 23.3634 12.5207H18.8573C18.5822 12.5217 18.3595 12.7444 18.3584 13.0195C18.3568 13.2964 18.5803 13.5222 18.8573 13.5232H23.3634V18.1614L22.7726 17.1383C22.2914 16.305 21.2136 16.0135 20.3802 16.4947C19.8117 16.8229 19.5202 17.4192 19.5233 18.0283H6.61535C6.38455 17.7754 6.17567 17.5701 6.03827 17.4033C5.88212 17.2138 5.83776 17.1117 5.83776 17.0277V14.8714C5.81637 14.1585 5.62704 13.5698 5.33893 13.1134ZM24.8687 4.00728C24.045 4.00728 23.3634 4.68406 23.3634 5.50768H18.8573C18.5803 5.50878 18.3568 5.73444 18.3584 6.0114C18.3595 6.28644 18.5822 6.50916 18.8573 6.51024H23.3634C23.3634 7.33384 24.045 8.01064 24.8687 8.01064C25.6923 8.01064 26.3691 7.33386 26.3691 6.51024H27.8734C28.1484 6.50913 28.3711 6.28644 28.3722 6.0114C28.3739 5.73444 28.1503 5.50876 27.8734 5.50768H26.3691C26.3691 4.68406 25.6923 4.00728 24.8687 4.00728ZM24.8687 5.00885C25.1547 5.00885 25.3675 5.2216 25.3675 5.50768V6.51024C25.3675 6.79632 25.1547 7.01298 24.8687 7.01298C24.5826 7.01298 24.3649 6.79632 24.3649 6.51024V5.50768C24.3649 5.2216 24.5826 5.00885 24.8687 5.00885ZM11.8492 5.50768C8.81285 5.50768 6.34148 7.98001 6.34148 11.0163V13.0195C6.33988 13.2964 6.56337 13.5221 6.84031 13.5232H16.8531C17.132 13.5248 17.3585 13.2984 17.3568 13.0195V11.0163C17.3568 7.98001 14.8855 5.50768 11.8492 5.50768ZM11.3464 6.53762V7.01298C11.3475 7.28955 11.5726 7.51289 11.8492 7.51181C12.1242 7.51071 12.3469 7.28801 12.348 7.01298V6.53762C13.2193 6.63302 14.0148 6.97439 14.6632 7.49225L14.3257 7.82969C14.1289 8.02548 14.1289 8.34401 14.3257 8.53979C14.5215 8.73662 14.84 8.73662 15.0358 8.53979L15.3733 8.20235C15.8911 8.85071 16.2316 9.64617 16.3269 10.5175H15.8564C15.5799 10.5164 15.3548 10.7398 15.3537 11.0163C15.3526 11.2944 15.5783 11.5202 15.8564 11.5191H16.3543V12.5207H13.8533C13.8533 12.0221 13.6674 11.5639 13.3623 11.212L14.2044 10.3698C14.3986 10.1745 14.3986 9.85896 14.2044 9.66363C14.1115 9.57013 13.9852 9.51688 13.8533 9.51594C13.72 9.51596 13.5922 9.56918 13.4982 9.66363L12.5221 10.6349C12.3115 10.559 12.0848 10.5175 11.8492 10.5175C10.7488 10.5175 9.84602 11.4203 9.84602 12.5207H7.34306V11.5191H7.84189C8.11846 11.518 8.34182 11.2929 8.34072 11.0163C8.33967 10.7413 8.11694 10.5186 7.84189 10.5175H7.37044C7.46584 9.64617 7.8072 8.85071 8.32507 8.20235L8.66251 8.53979C8.85785 8.73401 9.17337 8.73401 9.3687 8.53979C9.56551 8.34401 9.56551 8.02548 9.3687 7.82969L9.03321 7.4942C9.68101 6.97614 10.4756 6.63362 11.3464 6.53762ZM20.8604 7.51181C20.0368 7.51181 19.36 8.18859 19.36 9.01222H18.8573C18.5803 9.01332 18.3568 9.23897 18.3584 9.51594C18.3595 9.79097 18.5822 10.0137 18.8573 10.0148H19.36C19.36 10.8384 20.0368 11.5191 20.8604 11.5191C21.684 11.5191 22.3657 10.8384 22.3657 10.0148H27.8734C28.1484 10.0137 28.3711 9.79097 28.3722 9.51594C28.3739 9.23897 28.1503 9.0133 27.8734 9.01222H22.3657C22.3657 8.18859 21.684 7.51181 20.8604 7.51181ZM20.8604 8.51339C21.1465 8.51339 21.3641 8.72613 21.3641 9.01222V10.0148C21.3641 10.3009 21.1465 10.5175 20.8604 10.5175C20.5743 10.5175 20.3616 10.3009 20.3616 10.0148V9.01222C20.3616 8.72613 20.5743 8.51339 20.8604 8.51339ZM2.33421 11.4242V17.0297C2.33474 17.3051 2.55762 17.5284 2.83304 17.5295C3.11 17.5306 3.33525 17.3067 3.33578 17.0297V13.3745C3.33578 13.1339 3.39016 13.0995 3.45413 13.0645C3.51811 13.0295 3.66661 13.0081 3.86787 13.0899C4.27034 13.2534 4.80318 13.8023 4.83619 14.8935V17.0268C4.83619 17.4436 5.04707 17.7779 5.26557 18.043C5.48407 18.3081 5.73206 18.5395 5.96394 18.801C6.42768 19.3241 6.83778 19.9181 6.84031 21.034C6.84142 21.3106 7.06649 21.534 7.34306 21.5329C7.61811 21.5318 7.84081 21.3091 7.84189 21.034H10.4818C10.4129 21.7466 10.2127 22.394 10.0006 22.9893C9.80208 23.5462 9.66849 24.0352 9.57215 24.5386H2.83304V23.0333C2.83304 22.6577 2.72382 22.2746 2.57775 21.8136C2.43182 21.3526 2.23942 20.8376 2.05251 20.3132C1.6787 19.2643 1.33165 18.1441 1.33165 17.6107V13.3491C1.33165 12.954 1.42725 12.4587 1.66812 12.0629C1.82446 11.806 2.03205 11.5841 2.33421 11.4242ZM11.8492 11.5191C12.4082 11.5191 12.8507 11.9616 12.8507 12.5207H10.8476C10.8476 11.9616 11.2901 11.5191 11.8492 11.5191ZM25.3675 12.5207V19.0299C25.3826 19.683 26.3546 19.683 26.3691 19.0299V17.0268C26.3691 16.7407 26.5857 16.523 26.8718 16.523C27.1579 16.523 27.3706 16.7407 27.3706 17.0268V19.0299C27.3858 19.683 28.3577 19.683 28.3722 19.0299V17.5256C28.3722 17.2395 28.5898 17.0268 28.8759 17.0268C29.162 17.0268 29.3748 17.2395 29.3748 17.5256V19.0299C29.3899 19.683 30.3618 19.683 30.3763 19.0299V18.0283C30.3763 17.7423 30.5891 17.5256 30.8752 17.5256C31.1613 17.5256 31.3779 17.7423 31.3779 18.0283V22.5345C31.3779 23.1743 31.165 23.7208 30.9202 24.2716C30.739 24.6791 30.5284 25.086 30.4311 25.5402H24.1762L20.6208 18.4167C20.4145 18.0035 20.5116 17.5743 20.879 17.3623C21.2468 17.1499 21.6946 17.2684 21.907 17.6361L23.4338 20.279C23.6917 20.7124 24.3562 20.5358 24.3649 20.0315C24.365 17.5289 24.3649 15.0207 24.3649 12.5207C24.3649 12.2346 24.5826 12.018 24.8687 12.0179C25.1547 12.0178 25.3675 12.2346 25.3675 12.5207ZM7.34697 19.0299H19.805L20.3048 20.0315H7.72745C7.6383 19.6527 7.50454 19.3207 7.34697 19.0299ZM2.83304 25.5402H9.84602C10.1321 25.5402 10.3448 25.7529 10.3448 26.039V30.5451C10.3448 30.8312 10.1321 31.0478 9.84602 31.0478H2.83304C2.54697 31.0478 2.33421 30.8312 2.33421 30.5451V26.039C2.33421 25.7529 2.54697 25.5402 2.83304 25.5402ZM23.8661 26.5417H30.8752C31.1613 26.5417 31.3779 26.7545 31.3779 27.0406V30.5451C31.3779 30.8312 31.1613 31.0478 30.8752 31.0478H23.8661C23.58 31.0478 23.3634 30.8312 23.3634 30.5451V27.0406C23.3634 26.7545 23.58 26.5417 23.8661 26.5417Z" fill="white"/>
</svg>
