<svg width="32" height="32" viewBox="0 0 32 32" fill="none" xmlns="http://www.w3.org/2000/svg">
<path d="M0.597656 31.0625H30.7227" stroke="white" stroke-miterlimit="10" stroke-linecap="round" stroke-linejoin="round"/>
<path d="M5.66016 23.5625H3.16016C2.81497 23.5625 2.53516 23.8423 2.53516 24.1875V31.0625H6.28516V24.1875C6.28516 23.8423 6.00534 23.5625 5.66016 23.5625Z" stroke="white" stroke-miterlimit="10" stroke-linecap="round" stroke-linejoin="round"/>
<path d="M13.1602 21.3125H10.6602C10.315 21.3125 10.0352 21.5923 10.0352 21.9375V31.0625H13.7852V21.9375C13.7852 21.5923 13.5053 21.3125 13.1602 21.3125Z" stroke="white" stroke-miterlimit="10" stroke-linecap="round" stroke-linejoin="round"/>
<path d="M20.6602 17.875H18.1602C17.815 17.875 17.5352 18.1548 17.5352 18.5V31.0625H21.2852V18.5C21.2852 18.1548 21.0053 17.875 20.6602 17.875Z" stroke="white" stroke-miterlimit="10" stroke-linecap="round" stroke-linejoin="round"/>
<path d="M28.1602 11.625H25.6602C25.315 11.625 25.0352 11.9048 25.0352 12.25V31.0625H28.7852V12.25C28.7852 11.9048 28.5053 11.625 28.1602 11.625Z" stroke="white" stroke-miterlimit="10" stroke-linecap="round" stroke-linejoin="round"/>
<path d="M0.597656 19.207C12.9115 19.207 25.2253 9.79322 29.1874 0.938284" stroke="white" stroke-miterlimit="10" stroke-linecap="round" stroke-linejoin="round"/>
<path d="M23.459 2.47183L29.1884 0.936641L30.7235 6.66602" stroke="white" stroke-miterlimit="10" stroke-linecap="round" stroke-linejoin="round"/>
</svg>
