<svg width="120" height="23" viewBox="0 0 120 23" fill="none" xmlns="http://www.w3.org/2000/svg">
<path d="M89.7053 5.56872C90.4706 4.2707 91.4471 3.14948 92.9025 2.644C96.4154 1.42295 100.608 2.22799 102.053 6.25518C102.275 6.90452 102.39 7.58503 102.396 8.27084C102.435 10.7962 102.412 13.3256 102.412 15.853C102.412 16.2524 102.44 16.7288 101.875 16.7142C101.31 16.6996 101.381 16.2067 101.381 15.8197C101.381 13.3402 101.381 10.8627 101.381 8.38318C101.371 5.30246 99.211 3.16822 96.1059 3.18278C95.4417 3.15731 94.7766 3.20123 94.1215 3.31383C93.0121 3.54549 92.0162 4.14917 91.3006 5.02387C90.585 5.89857 90.1931 6.99122 90.1905 8.11899C90.1612 10.6464 90.1905 13.1738 90.18 15.7012C90.18 15.8967 90.2302 16.1172 90.1465 16.2815C90.0468 16.4832 89.8721 16.6384 89.6593 16.7142C89.5381 16.7371 89.2976 16.5062 89.2223 16.3231C89.1647 16.1054 89.1505 15.8786 89.1805 15.6554C89.1805 13.1759 89.1805 10.6984 89.1805 8.21884C89.1575 5.32326 86.9766 3.18902 84.0492 3.15782C82.8845 3.14534 81.7261 3.13908 80.668 3.73817C78.9451 4.71168 77.9811 6.16571 77.9497 8.15434C77.9184 10.6339 77.9497 13.1134 77.9372 15.5909C77.9646 15.8344 77.949 16.0808 77.8912 16.319C77.8498 16.4112 77.7875 16.4927 77.7091 16.5569C77.6308 16.6212 77.5385 16.6665 77.4395 16.6892C77.3414 16.6662 77.2502 16.6204 77.1732 16.5557C77.0962 16.491 77.0356 16.4092 76.9962 16.3169C76.936 16.0791 76.919 15.8326 76.9461 15.5888C76.9461 13.1343 76.9335 10.6797 76.9461 8.22717C76.9403 6.7144 77.506 5.25466 78.5312 4.13734C79.5563 3.02002 80.9661 2.32667 82.4809 2.19471C84.5991 2.00541 86.6483 2.19469 88.2688 3.78809C88.802 4.31229 89.2223 4.94882 89.7179 5.56247" fill="#46266E"/>
<path d="M43.6252 14.322V21.8459H42.678C42.6676 21.5942 42.6446 21.3363 42.6446 21.0804C42.6446 16.7606 42.6446 12.4408 42.6446 8.12105C42.6391 6.59444 43.2262 5.12466 44.2835 4.0182C45.3408 2.91174 46.7867 2.25401 48.3195 2.18219C49.3547 2.1281 50.3921 2.13228 51.4268 2.19468C52.932 2.29036 54.345 2.9497 55.3812 4.04001C56.4175 5.13033 57.0001 6.57068 57.0118 8.07113C57.0118 8.97808 57.0118 9.8871 57.0118 10.7941C57.0102 12.3703 56.38 13.8815 55.2596 14.996C54.1393 16.1106 52.6202 16.7375 51.0357 16.7391H49.7811C46.5882 16.7391 46.0801 16.5457 43.6273 14.322H43.6252ZM43.5876 9.50228H43.6566C43.6566 9.94328 43.6566 10.3843 43.6566 10.8273C43.6366 12.0922 44.1155 13.3144 44.9907 14.2321C45.8659 15.1498 47.0677 15.6899 48.3384 15.7365C49.3723 15.7871 50.4083 15.7795 51.4414 15.7136C52.6614 15.6492 53.8111 15.1254 54.6569 14.2484C55.5027 13.3714 55.9814 12.207 55.9956 10.9917C56.0249 9.93771 56.0249 8.88377 55.9956 7.82983C55.947 6.60328 55.4327 5.44065 54.5566 4.57635C53.6804 3.71205 52.5074 3.21035 51.2741 3.17235C50.315 3.146 49.3539 3.146 48.3906 3.17235C47.3343 3.19209 46.3143 3.5591 45.4897 4.21611C44.6651 4.87312 44.0823 5.78317 43.8323 6.8043C43.6232 7.6738 43.6608 8.59947 43.5855 9.5085" fill="#46266E"/>
<path d="M106.4 21.8494H105.432C105.419 21.5977 105.398 21.3397 105.398 21.0818C105.398 16.762 105.398 12.4429 105.398 8.12449C105.397 6.55972 106.015 5.05728 107.119 3.94287C108.223 2.82846 109.724 2.19187 111.297 2.17108C112.259 2.1586 113.223 2.13571 114.183 2.19604C115.688 2.29411 117.1 2.9544 118.136 4.04459C119.172 5.13478 119.756 6.57429 119.77 8.07457C119.77 9.00648 119.77 9.9467 119.77 10.8724C119.748 12.4231 119.118 13.9039 118.015 14.9995C116.911 16.0951 115.422 16.719 113.863 16.7384C113.198 16.7384 112.529 16.7114 111.864 16.7384C110.901 16.8132 109.933 16.6597 109.041 16.2905C108.149 15.9213 107.358 15.347 106.732 14.6146C106.668 14.5438 106.586 14.4898 106.4 14.3338V21.8494ZM118.816 9.51402H118.752C118.752 8.9503 118.775 8.38449 118.752 7.82285C118.696 6.5844 118.168 5.4137 117.274 4.54998C116.38 3.68625 115.188 3.19471 113.942 3.17578C113.056 3.16122 112.169 3.1633 111.28 3.17578C109.996 3.17901 108.765 3.68561 107.853 4.58583C106.941 5.48606 106.423 6.70737 106.41 7.98511C106.387 8.91494 106.4 9.85726 106.41 10.7788C106.423 13.483 108.338 15.5631 111.042 15.7399C112.125 15.8024 113.211 15.794 114.294 15.715C115.323 15.6508 116.303 15.2527 117.084 14.5817C117.864 13.9108 118.402 13.0039 118.616 11.9998C118.789 11.1927 118.762 10.3357 118.825 9.51818" fill="#46266E"/>
<path d="M25.4227 11.4286C26.4097 14.5259 28.0866 15.7595 31.2085 15.7595H36.2269C36.4235 15.7595 36.6451 15.7012 36.8103 15.7823C37.0238 15.9277 37.2178 16.0997 37.3874 16.2941C37.195 16.4439 37.0068 16.7101 36.8124 16.7101C34.4726 16.7288 32.1265 16.7933 29.7908 16.6727C27.4552 16.552 25.2324 14.6591 24.7724 12.1525C24.46 10.419 24.4325 8.64652 24.6909 6.90424C25.1091 4.23956 27.4698 2.34036 30.1923 2.18019C31.3767 2.10966 32.5648 2.12498 33.747 2.22597C35.2095 2.36282 36.5701 3.03095 37.5688 4.10271C38.5674 5.17446 39.1341 6.57468 39.1606 8.03584C39.1752 8.77013 39.1606 9.5065 39.1606 10.2408C39.1606 11.1373 38.8846 11.4161 37.9645 11.4161H25.4185L25.4227 11.4286ZM25.5942 10.3635H38.1736C38.1736 9.56269 38.1862 8.82838 38.1736 8.09409C38.1566 6.81756 37.6486 5.59602 36.754 4.68062C35.8595 3.76521 34.6465 3.22551 33.3643 3.17242C32.3544 3.13498 31.3402 3.1329 30.3324 3.17242C29.1843 3.20657 28.0842 3.63877 27.2225 4.39426C26.3607 5.14976 25.7914 6.18105 25.613 7.30986C25.4687 8.28962 25.59 9.31097 25.59 10.376" fill="#46266E"/>
<path d="M73.0064 6.98819V3.01301C73.0064 2.63443 73.0064 2.1643 73.5103 2.22671C73.7194 2.24959 73.9891 2.74883 73.9933 3.03381C74.031 5.65897 74.0498 8.28415 74.0059 10.9093C73.9515 14.092 71.2248 16.6859 68.0298 16.7546C66.1479 16.7941 64.381 16.6152 62.9068 15.2984C61.5477 14.0961 60.7866 12.5942 60.7657 10.7824C60.7364 8.20509 60.7552 5.62779 60.7657 3.05255C60.7657 2.65732 60.7468 2.156 61.3072 2.22049C61.4954 2.24545 61.7484 2.75509 61.7547 3.05255C61.7882 5.5321 61.7672 8.00957 61.7735 10.487C61.7735 13.5574 63.8645 15.6999 66.9425 15.7269C67.8999 15.766 68.8573 15.6472 69.7758 15.3754C71.7769 14.6973 72.9896 12.8459 73.0106 10.7263C73.0231 9.47816 73.0106 8.23007 73.0106 6.98197" fill="#46266E"/>
<path d="M16.6214 12.2334V18.7755C16.6214 19.0447 16.5139 19.3029 16.3225 19.4933C16.1311 19.6837 15.8716 19.7906 15.601 19.7906H6.97767C6.70721 19.7901 6.44798 19.683 6.25674 19.4927C6.0655 19.3025 5.95781 19.0446 5.95726 18.7755V13.0759C5.48469 13.1882 5.25887 14.74 5.24005 15.5013C5.22123 16.2627 5.04977 16.9699 4.4392 17.1384C3.82862 17.3069 2.76639 17.0635 2.91904 14.8503C3.07168 12.637 4.25728 9.85787 4.25728 9.85787L3.99172 9.70811C4.12345 9.20055 4.95567 8.86147 4.95567 8.86147V8.44544H5.95726V5.79324C5.95726 5.52401 6.06477 5.26581 6.25613 5.07544C6.44749 4.88507 6.70704 4.77812 6.97767 4.77812H15.601C15.735 4.77784 15.8678 4.80391 15.9918 4.85483C16.1157 4.90575 16.2283 4.98051 16.3231 5.07483C16.4179 5.16915 16.4931 5.28117 16.5442 5.40445C16.5954 5.52773 16.6216 5.65985 16.6214 5.79324V9.96813H22.4657C22.159 7.22718 20.8473 4.69493 18.7815 2.85585C16.7156 1.01677 14.0406 -3.33106e-05 11.2684 8.18433e-10C8.27983 8.1848e-10 5.41367 1.18106 3.30044 3.28333C1.18721 5.38561 0 8.23691 0 11.21C-5.14379e-08 14.1832 1.18714 17.0347 3.30031 19.1374C5.41349 21.24 8.27964 22.4215 11.2684 22.422C14.0795 22.4216 16.7888 21.3757 18.8644 19.4898C20.9401 17.6039 22.232 15.0142 22.4866 12.2293L16.6214 12.2334Z" fill="#46266E"/>
<path d="M5.10212 9.97709C5.02674 9.97791 4.9539 10.0044 4.89571 10.052C4.83752 10.0997 4.79746 10.1657 4.7822 10.2392C4.30963 11.0109 3.57987 14.1228 3.50251 14.9695C3.42514 15.8161 3.60706 16.4526 3.82661 16.5504C4.18626 16.7106 4.42673 16.6731 4.51664 16.2217C4.61701 15.7163 4.80102 14.4307 4.89511 13.7942C5.07494 12.5711 5.95316 12.4691 5.95316 12.4691V9.39258H5.74406C5.70642 9.56315 5.38441 9.95837 5.10003 9.97709" fill="#46266E"/>
<path d="M14.494 6.0625H8.06625C7.65859 6.0625 7.32812 6.39126 7.32812 6.7968V9.87959C7.32812 10.2851 7.65859 10.6139 8.06625 10.6139H14.494C14.9016 10.6139 15.2321 10.2851 15.2321 9.87959V6.7968C15.2321 6.39126 14.9016 6.0625 14.494 6.0625Z" fill="#46266E"/>
</svg>
