<svg width="40" height="40" viewBox="0 0 40 40" fill="none" xmlns="http://www.w3.org/2000/svg">
<circle cx="20" cy="20" r="19.3333" stroke="white" stroke-width="1.33333"/>
<path fill-rule="evenodd" clip-rule="evenodd" d="M8.23962 14.8496C7.89127 18.0862 7.9068 21.8191 8.39153 25.0426C8.65975 26.8262 10.1154 28.1936 11.9123 28.3498L13.7903 28.5131C17.706 28.8535 21.644 28.8535 25.5597 28.5131L27.4376 28.3498C29.2345 28.1936 30.6902 26.8262 30.9585 25.0426C31.4432 21.8191 31.4587 18.0864 31.1104 14.8498C31.0654 14.4746 31.0147 14.0998 30.9585 13.7257C30.6902 11.9421 29.2345 10.5747 27.4376 10.4185L25.5597 10.2553C21.6439 9.9149 17.706 9.9149 13.7903 10.2553L11.9123 10.4185C10.1154 10.5747 8.65975 11.9421 8.39153 13.7257C8.33529 14.0998 8.28465 14.4744 8.23962 14.8496ZM13.9518 12.1135C17.7601 11.7824 21.5899 11.7824 25.3982 12.1135L27.2761 12.2767C28.2141 12.3583 28.974 13.0721 29.114 14.0031C29.1285 14.0998 29.1427 14.1965 29.1564 14.2933L22.2415 18.135C20.6453 19.0217 18.7046 19.0217 17.1084 18.135L10.1936 14.2934C10.2073 14.1966 10.2215 14.0998 10.236 14.0031C10.376 13.0721 11.1359 12.3583 12.0739 12.2767L13.9518 12.1135ZM29.3847 16.3002C29.6259 19.1201 29.5356 21.9613 29.114 24.7653C28.974 25.6963 28.2141 26.4101 27.2761 26.4916L25.3982 26.6549C21.5899 26.9859 17.7601 26.9859 13.9518 26.6549L12.0739 26.4916C11.1359 26.4101 10.376 25.6963 10.236 24.7653C9.81436 21.9613 9.72413 19.1202 9.96532 16.3003L16.2026 19.7654C18.3621 20.9651 20.9878 20.9651 23.1473 19.7654L29.3847 16.3002Z" fill="white"/>
</svg>
