<svg width="40" height="40" viewBox="0 0 40 40" fill="none" xmlns="http://www.w3.org/2000/svg">
<circle cx="20" cy="20" r="19.3333" stroke="white" stroke-width="1.33333"/>
<path fill-rule="evenodd" clip-rule="evenodd" d="M11.008 17.0686C13.3911 22.2578 17.6317 26.3834 22.9034 28.6188L22.9201 28.6259L23.9385 29.0798C25.2353 29.6576 26.7596 29.2473 27.5911 28.0965L29.2903 25.7448C29.394 25.6012 29.3673 25.4014 29.2294 25.2902L26.2631 22.8971C26.1156 22.7782 25.8988 22.8059 25.7859 22.9581L24.6315 24.5159C24.3511 24.8943 23.8447 25.0257 23.4157 24.8316C19.4739 23.0477 16.3062 19.8801 14.5223 15.9382C14.3282 15.5092 14.4596 15.0028 14.838 14.7225L16.3958 13.568C16.548 13.4552 16.5757 13.2383 16.4568 13.0909L14.0634 10.1241C13.9522 9.98626 13.7525 9.95948 13.6089 10.0632L11.2445 11.77C10.0861 12.6063 9.67814 14.1434 10.2694 15.444L11.0072 17.0669C11.0075 17.0675 11.0077 17.0681 11.008 17.0686ZM22.1142 30.4566C16.3862 28.0251 11.779 23.5411 9.18963 17.9014L9.18807 17.898L8.44874 16.2717C7.46327 14.1041 8.14317 11.5422 10.0738 10.1485L12.4382 8.44157C13.4437 7.7157 14.8413 7.90317 15.62 8.86836L18.0134 11.8351C18.8461 12.8673 18.6522 14.3852 17.5866 15.1748L16.694 15.8364C18.2018 18.7622 20.5917 21.1521 23.5175 22.66L24.1791 21.7673C24.9687 20.7017 26.4866 20.5078 27.5188 21.3405L30.4851 23.7336C31.4506 24.5125 31.6379 25.9107 30.9114 26.9161L29.2122 29.2678C27.8264 31.1858 25.2859 31.8697 23.1245 30.9067L22.1142 30.4566Z" fill="white"/>
</svg>
