<svg width="120" height="22" viewBox="0 0 120 22" fill="none" xmlns="http://www.w3.org/2000/svg">
<path d="M89.7053 5.35424C90.4706 4.10609 91.4471 3.02794 92.9025 2.54188C96.4154 1.36774 100.608 2.14185 102.053 6.01433C102.275 6.63872 102.39 7.2931 102.396 7.95256C102.435 10.3809 102.412 12.8131 102.412 15.2434C102.412 15.6275 102.44 16.0856 101.875 16.0716C101.31 16.0576 101.381 15.5835 101.381 15.2115C101.381 12.8272 101.381 10.4449 101.381 8.06058C101.371 5.09822 99.211 3.04596 96.1059 3.05996C95.4417 3.03547 94.7766 3.0777 94.1215 3.18598C93.0121 3.40873 92.0162 3.98922 91.3006 4.83032C90.585 5.67142 90.1931 6.7221 90.1905 7.80655C90.1612 10.2368 90.1905 12.6671 90.18 15.0974C90.18 15.2855 90.2302 15.4975 90.1465 15.6555C90.0468 15.8495 89.8721 15.9987 89.6593 16.0716C89.5381 16.0936 89.2976 15.8715 89.2223 15.6955C89.1647 15.4861 89.1505 15.268 89.1805 15.0534C89.1805 12.6691 89.1805 10.2868 89.1805 7.90255C89.1575 5.11821 86.9766 3.06597 84.0492 3.03596C82.8845 3.02396 81.7261 3.01794 80.668 3.59401C78.9451 4.53013 77.9811 5.9283 77.9497 7.84053C77.9184 10.2248 77.9497 12.6091 77.9372 14.9914C77.9646 15.2256 77.949 15.4625 77.8912 15.6915C77.8498 15.7802 77.7875 15.8586 77.7091 15.9203C77.6308 15.9821 77.5385 16.0257 77.4395 16.0476C77.3414 16.0254 77.2502 15.9814 77.1732 15.9192C77.0962 15.857 77.0356 15.7783 76.9962 15.6895C76.936 15.4609 76.919 15.2238 76.9461 14.9894C76.9461 12.6291 76.9335 10.2689 76.9461 7.91056C76.9403 6.45591 77.506 5.05225 78.5312 3.97785C79.5563 2.90345 80.9661 2.23674 82.4809 2.10985C84.5991 1.92782 86.6483 2.10983 88.2688 3.64202C88.802 4.14608 89.2223 4.75816 89.7179 5.34823" fill="white"/>
<path d="M43.6252 13.7722V21.0071H42.678C42.6676 20.765 42.6446 20.517 42.6446 20.2709C42.6446 16.1171 42.6446 11.9633 42.6446 7.80943C42.6391 6.34146 43.2262 4.92814 44.2835 3.86419C45.3408 2.80023 46.7867 2.16777 48.3195 2.09871C49.3547 2.0467 50.3921 2.05072 51.4268 2.11073C52.932 2.20273 54.345 2.83673 55.3812 3.88516C56.4175 4.93359 57.0001 6.31861 57.0118 7.76142C57.0118 8.63353 57.0118 9.50763 57.0118 10.3797C57.0102 11.8954 56.38 13.3486 55.2596 14.4203C54.1393 15.492 52.6202 16.0948 51.0357 16.0964H49.7811C46.5882 16.0964 46.0801 15.9104 43.6273 13.7722H43.6252ZM43.5876 9.13759H43.6566C43.6566 9.56165 43.6566 9.9857 43.6566 10.4117C43.6366 11.628 44.1155 12.8033 44.9907 13.6857C45.8659 14.5682 47.0677 15.0875 48.3384 15.1323C49.3723 15.181 50.4083 15.1737 51.4414 15.1103C52.6614 15.0484 53.8111 14.5447 54.6569 13.7013C55.5027 12.858 55.9814 11.7384 55.9956 10.5698C56.0249 9.55629 56.0249 8.54285 55.9956 7.52939C55.947 6.34996 55.4327 5.232 54.5566 4.4009C53.6804 3.5698 52.5074 3.08737 51.2741 3.05083C50.315 3.0255 49.3539 3.0255 48.3906 3.05083C47.3343 3.06981 46.3143 3.42272 45.4897 4.0545C44.6651 4.68627 44.0823 5.56136 43.8323 6.54325C43.6232 7.37936 43.6608 8.26947 43.5855 9.14358" fill="white"/>
<path d="M106.4 21.0108H105.432C105.419 20.7688 105.398 20.5207 105.398 20.2727C105.398 16.1189 105.398 11.9657 105.398 7.81318C105.397 6.30852 106.015 4.8638 107.119 3.7922C108.223 2.7206 109.724 2.10847 111.297 2.08848C112.259 2.07647 113.223 2.05447 114.183 2.11248C115.688 2.20678 117.1 2.84171 118.136 3.89002C119.172 4.93832 119.756 6.32254 119.77 7.76518C119.77 8.66129 119.77 9.56539 119.77 10.4555C119.748 11.9466 119.118 13.3705 118.015 14.4241C116.911 15.4776 115.422 16.0776 113.863 16.0962C113.198 16.0962 112.529 16.0702 111.864 16.0962C110.901 16.1681 109.933 16.0205 109.041 15.6655C108.149 15.3105 107.358 14.7582 106.732 14.0539C106.668 13.9859 106.586 13.9339 106.4 13.7839V21.0108ZM118.816 9.14933H118.752C118.752 8.60726 118.775 8.0632 118.752 7.52313C118.696 6.33226 118.168 5.20653 117.274 4.37599C116.38 3.54545 115.188 3.07279 113.942 3.05459C113.056 3.04058 112.169 3.04258 111.28 3.05459C109.996 3.05768 108.765 3.54483 107.853 4.41047C106.941 5.27611 106.423 6.45051 106.41 7.67915C106.387 8.57326 106.4 9.47939 106.41 10.3655C106.423 12.9658 108.338 14.9661 111.042 15.1361C112.125 15.1961 113.211 15.1881 114.294 15.1121C115.323 15.0503 116.303 14.6675 117.084 14.0224C117.864 13.3772 118.402 12.5051 118.616 11.5396C118.789 10.7635 118.762 9.93943 118.825 9.15333" fill="white"/>
<path d="M25.4227 10.9896C26.4097 13.968 28.0866 15.1541 31.2085 15.1541H36.2269C36.4235 15.1541 36.6451 15.0981 36.8103 15.1761C37.0238 15.3159 37.2178 15.4813 37.3874 15.6682C37.195 15.8122 37.0068 16.0682 36.8124 16.0682C34.4726 16.0862 32.1265 16.1482 29.7908 16.0322C27.4552 15.9162 25.2324 14.096 24.7724 11.6857C24.46 10.0188 24.4325 8.31441 24.6909 6.63906C25.1091 4.07674 27.4698 2.2505 30.1923 2.09648C31.3767 2.02867 32.5648 2.0434 33.747 2.14051C35.2095 2.2721 36.5701 2.91457 37.5688 3.94515C38.5674 4.97573 39.1341 6.32216 39.1606 7.72718C39.1752 8.43327 39.1606 9.14135 39.1606 9.84744C39.1606 10.7095 38.8846 10.9776 37.9645 10.9776H25.4185L25.4227 10.9896ZM25.5942 9.96547H38.1736C38.1736 9.19538 38.1862 8.48928 38.1736 7.7832C38.1566 6.5557 37.6486 5.38109 36.754 4.50086C35.8595 3.62062 34.6465 3.10165 33.3643 3.05061C32.3544 3.0146 31.3402 3.0126 30.3324 3.05061C29.1843 3.08344 28.0842 3.49904 27.2225 4.22551C26.3607 4.95198 25.7914 5.94365 25.613 7.0291C25.4687 7.97122 25.59 8.95333 25.59 9.97746" fill="white"/>
<path d="M73.0064 6.71888V2.89641C73.0064 2.53237 73.0064 2.08031 73.5103 2.14031C73.7194 2.16232 73.9891 2.64238 73.9933 2.91641C74.031 5.44072 74.0498 7.96506 74.0059 10.4894C73.9515 13.5497 71.2248 16.0441 68.0298 16.1101C66.1479 16.1481 64.381 15.976 62.9068 14.7099C61.5477 13.5537 60.7866 12.1095 60.7657 10.3673C60.7364 7.88903 60.7552 5.41074 60.7657 2.93443C60.7657 2.55438 60.7468 2.07232 61.3072 2.13433C61.4954 2.15834 61.7484 2.6484 61.7547 2.93443C61.7882 5.31873 61.7672 7.70102 61.7735 10.0833C61.7735 13.0357 63.8645 15.0959 66.9425 15.1219C67.8999 15.1594 68.8573 15.0452 69.7758 14.7839C71.7769 14.1318 72.9896 12.3516 73.0106 10.3133C73.0231 9.1132 73.0106 7.91305 73.0106 6.7129" fill="white"/>
<path d="M16.6214 11.7635V18.0542C16.6214 18.3131 16.5139 18.5614 16.3225 18.7445C16.1311 18.9275 15.8716 19.0304 15.601 19.0304H6.97767C6.70721 19.0298 6.44798 18.9268 6.25674 18.7439C6.0655 18.5609 5.95781 18.313 5.95726 18.0542V12.5735C5.48469 12.6816 5.25887 14.1738 5.24005 14.9058C5.22123 15.6379 5.04977 16.318 4.4392 16.48C3.82862 16.6421 2.76639 16.408 2.91904 14.2798C3.07168 12.1515 4.25728 9.47917 4.25728 9.47917L3.99172 9.33516C4.12345 8.8471 4.95567 8.52105 4.95567 8.52105V8.121H5.95726V5.57068C5.95726 5.3118 6.06477 5.06352 6.25613 4.88046C6.44749 4.6974 6.70704 4.59456 6.97767 4.59456H15.601C15.735 4.5943 15.8678 4.61936 15.9918 4.66833C16.1157 4.71729 16.2283 4.78918 16.3231 4.87987C16.4179 4.97057 16.4931 5.07829 16.5442 5.19683C16.5954 5.31538 16.6216 5.44242 16.6214 5.57068V9.58519H22.4657C22.159 6.94954 20.8473 4.51457 18.7815 2.74614C16.7156 0.977708 14.0406 -3.20309e-05 11.2684 7.86992e-10C8.27983 7.87037e-10 5.41367 1.13568 3.30044 3.1572C1.18721 5.17872 0 7.92048 0 10.7793C-5.14379e-08 13.6384 1.18714 16.3803 3.30031 18.4022C5.41349 20.424 8.27964 21.5601 11.2684 21.5607C14.0795 21.5602 16.7888 20.5546 18.8644 18.7411C20.9401 16.9277 22.232 14.4375 22.4866 11.7595L16.6214 11.7635Z" fill="white"/>
<path d="M5.10212 9.59331C5.02674 9.5941 4.9539 9.61954 4.89571 9.66539C4.83752 9.71123 4.79746 9.77472 4.7822 9.84534C4.30963 10.5874 3.57987 13.5798 3.50251 14.3939C3.42514 15.208 3.60706 15.8201 3.82661 15.9141C4.18626 16.0681 4.42673 16.0321 4.51664 15.5981C4.61701 15.112 4.80102 13.8759 4.89511 13.2638C5.07494 12.0876 5.95316 11.9896 5.95316 11.9896V9.03125H5.74406C5.70642 9.19527 5.38441 9.5753 5.10003 9.59331" fill="white"/>
<path d="M14.494 5.83008H8.06625C7.65859 5.83008 7.32812 6.1462 7.32812 6.53617V9.50053C7.32812 9.89049 7.65859 10.2066 8.06625 10.2066H14.494C14.9016 10.2066 15.2321 9.89049 15.2321 9.50053V6.53617C15.2321 6.1462 14.9016 5.83008 14.494 5.83008Z" fill="white"/>
</svg>
